<svg width="19" height="18" viewBox="0 0 19 18" fill="none" xmlns="http://www.w3.org/2000/svg">
<g id="shapes-and-symbols (1)">
<g id="Group 18">
<path id="Path 56" fill-rule="evenodd" clip-rule="evenodd" d="M9.3457 0C11.7497 0 14.0098 0.936176 15.7097 2.63602C17.4095 4.33593 18.3457 6.59602 18.3457 9C18.3457 11.404 17.4095 13.6641 15.7097 15.364C14.0098 17.0638 11.7497 18 9.3457 18C6.94172 18 4.68159 17.0638 2.98172 15.3639C1.28188 13.6641 0.345703 11.404 0.345703 9C0.345703 6.59602 1.28188 4.33589 2.98172 2.63602C4.68159 0.936176 6.94168 0 9.3457 0ZM8.61589 11.8877L13.6455 6.85804C13.8515 6.65209 13.8515 6.31821 13.6455 6.11227C13.4396 5.90632 13.1057 5.90632 12.8998 6.11227L8.24303 10.7691L5.79165 8.31772C5.58571 8.11178 5.25179 8.11178 5.04588 8.31772C4.83994 8.5237 4.83994 8.85758 5.04588 9.06349L7.87012 11.8877C7.9731 11.9907 8.10806 12.0421 8.24303 12.0421C8.37796 12.0421 8.51292 11.9907 8.61589 11.8877Z" fill="#2BD67B"/>
</g>
</g>
</svg>
