<svg width="83" height="38" viewBox="0 0 83 38" fill="none" xmlns="http://www.w3.org/2000/svg">
<g clip-path="url(#clip0_0_36664)">
<path d="M6.75998 29.0311C5.56531 29.0311 4.58531 28.8444 3.81998 28.4711C3.05464 28.0791 2.48531 27.5657 2.11198 26.9311C1.73864 26.2964 1.55198 25.5964 1.55198 24.8311C1.55198 23.5431 2.05598 22.4977 3.06398 21.6951C4.07198 20.8924 5.58398 20.4911 7.59998 20.4911H11.128V20.1551C11.128 19.2031 10.8573 18.5031 10.316 18.0551C9.77464 17.6071 9.10264 17.3831 8.29998 17.3831C7.57198 17.3831 6.93731 17.5604 6.39598 17.9151C5.85464 18.2511 5.51864 18.7551 5.38798 19.4271H1.88798C1.98131 18.4191 2.31731 17.5417 2.89598 16.7951C3.49331 16.0484 4.25864 15.4791 5.19198 15.0871C6.12531 14.6764 7.17064 14.4711 8.32798 14.4711C10.3066 14.4711 11.8653 14.9657 13.004 15.9551C14.1426 16.9444 14.712 18.3444 14.712 20.1551V28.6951H11.66L11.324 26.4551C10.9133 27.2017 10.3346 27.8177 9.58798 28.3031C8.85998 28.7884 7.91731 29.0311 6.75998 29.0311ZM7.57198 26.2311C8.59864 26.2311 9.39198 25.8951 9.95198 25.2231C10.5306 24.5511 10.8946 23.7204 11.044 22.7311H7.99198C7.03998 22.7311 6.35864 22.9084 5.94798 23.2631C5.53731 23.5991 5.33198 24.0191 5.33198 24.5231C5.33198 25.0644 5.53731 25.4844 5.94798 25.7831C6.35864 26.0817 6.89998 26.2311 7.57198 26.2311ZM16.4851 34.8551V14.8071H19.6771L20.0691 16.7951C20.5171 16.1791 21.1051 15.6377 21.8331 15.1711C22.5797 14.7044 23.5411 14.4711 24.7171 14.4711C26.0237 14.4711 27.1904 14.7884 28.2171 15.4231C29.2437 16.0577 30.0557 16.9257 30.6531 18.0271C31.2504 19.1284 31.5491 20.3791 31.5491 21.7791C31.5491 23.1791 31.2504 24.4297 30.6531 25.5311C30.0557 26.6137 29.2437 27.4724 28.2171 28.1071C27.1904 28.7231 26.0237 29.0311 24.7171 29.0311C23.6717 29.0311 22.7571 28.8351 21.9731 28.4431C21.1891 28.0511 20.5544 27.5004 20.0691 26.7911V34.8551H16.4851ZM23.9611 25.8951C25.0997 25.8951 26.0424 25.5124 26.7891 24.7471C27.5357 23.9817 27.9091 22.9924 27.9091 21.7791C27.9091 20.5657 27.5357 19.5671 26.7891 18.7831C26.0424 17.9991 25.0997 17.6071 23.9611 17.6071C22.8037 17.6071 21.8517 17.9991 21.1051 18.7831C20.3771 19.5484 20.0131 20.5377 20.0131 21.7511C20.0131 22.9644 20.3771 23.9631 21.1051 24.7471C21.8517 25.5124 22.8037 25.8951 23.9611 25.8951ZM33.1036 34.8551V14.8071H36.2956L36.6876 16.7951C37.1356 16.1791 37.7236 15.6377 38.4516 15.1711C39.1983 14.7044 40.1596 14.4711 41.3356 14.4711C42.6423 14.4711 43.809 14.7884 44.8356 15.4231C45.8623 16.0577 46.6743 16.9257 47.2716 18.0271C47.869 19.1284 48.1676 20.3791 48.1676 21.7791C48.1676 23.1791 47.869 24.4297 47.2716 25.5311C46.6743 26.6137 45.8623 27.4724 44.8356 28.1071C43.809 28.7231 42.6423 29.0311 41.3356 29.0311C40.2903 29.0311 39.3756 28.8351 38.5916 28.4431C37.8076 28.0511 37.173 27.5004 36.6876 26.7911V34.8551H33.1036ZM40.5796 25.8951C41.7183 25.8951 42.661 25.5124 43.4076 24.7471C44.1543 23.9817 44.5276 22.9924 44.5276 21.7791C44.5276 20.5657 44.1543 19.5671 43.4076 18.7831C42.661 17.9991 41.7183 17.6071 40.5796 17.6071C39.4223 17.6071 38.4703 17.9991 37.7236 18.7831C36.9956 19.5484 36.6316 20.5377 36.6316 21.7511C36.6316 22.9644 36.9956 23.9631 37.7236 24.7471C38.4703 25.5124 39.4223 25.8951 40.5796 25.8951ZM56.4702 29.0311C55.0702 29.0311 53.8289 28.7324 52.7462 28.1351C51.6635 27.5377 50.8142 26.6977 50.1982 25.6151C49.5822 24.5324 49.2742 23.2817 49.2742 21.8631C49.2742 20.4257 49.5729 19.1471 50.1702 18.0271C50.7862 16.9071 51.6262 16.0391 52.6902 15.4231C53.7729 14.7884 55.0422 14.4711 56.4982 14.4711C57.8609 14.4711 59.0649 14.7697 60.1102 15.3671C61.1555 15.9644 61.9675 16.7857 62.5462 17.8311C63.1435 18.8577 63.4422 20.0057 63.4422 21.2751C63.4422 21.4804 63.4329 21.6951 63.4142 21.9191C63.4142 22.1431 63.4049 22.3764 63.3862 22.6191H52.8302C52.9049 23.7017 53.2782 24.5511 53.9502 25.1671C54.6409 25.7831 55.4715 26.0911 56.4422 26.0911C57.1702 26.0911 57.7769 25.9324 58.2622 25.6151C58.7662 25.2791 59.1395 24.8497 59.3822 24.3271H63.0222C62.7609 25.2044 62.3222 26.0071 61.7062 26.7351C61.1089 27.4444 60.3622 28.0044 59.4662 28.4151C58.5889 28.8257 57.5902 29.0311 56.4702 29.0311ZM56.4982 17.3831C55.6209 17.3831 54.8462 17.6351 54.1742 18.1391C53.5022 18.6244 53.0729 19.3711 52.8862 20.3791H59.8022C59.7462 19.4644 59.4102 18.7364 58.7942 18.1951C58.1782 17.6537 57.4129 17.3831 56.4982 17.3831ZM62.5365 28.6951L67.5765 21.7511L62.5365 14.8071H66.3725L69.9005 19.7351L73.4005 14.8071H77.2645L72.1965 21.7511L77.2645 28.6951H73.4005L69.9005 23.7671L66.3725 28.6951H62.5365ZM79.4407 28.8911C78.7874 28.8911 78.2461 28.6857 77.8167 28.2751C77.4061 27.8644 77.2007 27.3697 77.2007 26.7911C77.2007 26.1937 77.4061 25.6897 77.8167 25.2791C78.2461 24.8684 78.7874 24.6631 79.4407 24.6631C80.0941 24.6631 80.6261 24.8684 81.0367 25.2791C81.4661 25.6897 81.6807 26.1937 81.6807 26.7911C81.6807 27.3697 81.4661 27.8644 81.0367 28.2751C80.6261 28.6857 80.0941 28.8911 79.4407 28.8911Z" fill="#0D152E"/>
</g>
<defs>
<clipPath id="clip0_0_36664">
<rect width="82" height="37" fill="white" transform="translate(0.151978 0.695068)"/>
</clipPath>
</defs>
</svg>
