<svg width="55" height="55" viewBox="0 0 55 55" fill="none" xmlns="http://www.w3.org/2000/svg">
<g id="icon">
<g id="Group 344">
<g id="Group 343">
<path id="Ellipse 45" d="M27.4995 49.0686C39.4116 49.0686 49.0683 39.4119 49.0683 27.4998C49.0683 15.5877 39.4116 5.93103 27.4995 5.93103C15.5873 5.93103 5.93066 15.5877 5.93066 27.4998C5.93066 39.4119 15.5873 49.0686 27.4995 49.0686Z" fill="url(#paint0_linear_0_7891)"/>
<path id="Ellipse 46" d="M27.4991 47.3319C38.452 47.3319 47.3311 38.4528 47.3311 27.4998C47.3311 16.5468 38.452 7.66772 27.4991 7.66772C16.5461 7.66772 7.66699 16.5468 7.66699 27.4998C7.66699 38.4528 16.5461 47.3319 27.4991 47.3319Z" fill="url(#paint1_linear_0_7891)"/>
<path id="Ellipse 47" d="M27.4992 45.4649C37.4209 45.4649 45.4641 37.4217 45.4641 27.4999C45.4641 17.5781 37.4209 9.53491 27.4992 9.53491C17.5774 9.53491 9.53418 17.5781 9.53418 27.4999C9.53418 37.4217 17.5774 45.4649 27.4992 45.4649Z" fill="url(#paint2_linear_0_7891)"/>
<path id="Path 302" d="M45.4601 27.8178L28.1629 10.5205C27.9337 10.1732 27.4242 10.1732 27.1949 10.5205L24.932 13.9491C24.6813 14.3291 24.9466 14.8326 25.3964 14.8472C25.4068 15.1349 25.6334 15.3964 25.9561 15.4068C25.9584 15.4681 25.9697 15.5282 25.9904 15.585V24.8657C25.0359 25.4397 24.3972 26.4851 24.3972 27.6799C24.3972 28.0274 24.4517 28.3622 24.5517 28.6765L21.8183 31.4099L21.4122 31.0038C21.0855 30.6771 20.5267 30.8449 20.434 31.2975L19.6098 35.3221C19.5357 35.6836 19.8108 36.0071 20.1583 36.0177L29.495 45.3544C38.3741 44.3728 45.3022 36.921 45.4601 27.8178H45.4601Z" fill="url(#paint3_linear_0_7891)"/>
<g id="Group 342">
<g id="Group 338">
<g id="Group 336">
<path id="Path 303" d="M27.4996 17.0416C26.5629 17.0416 25.8037 16.2823 25.8037 15.3458V13.2259C25.8037 12.2893 26.563 11.53 27.4996 11.53C28.4362 11.53 29.1954 12.2894 29.1954 13.2259V15.3458C29.1954 16.2824 28.4362 17.0416 27.4996 17.0416Z" fill="#BCCBD3"/>
<path id="Path 304" d="M27.4996 43.4696C26.5629 43.4696 25.8037 42.7103 25.8037 41.7737V39.6538C25.8037 38.7172 26.563 37.958 27.4996 37.958C28.4362 37.958 29.1954 38.7173 29.1954 39.6538V41.7737C29.1954 42.7104 28.4362 43.4696 27.4996 43.4696Z" fill="#BCCBD3"/>
</g>
<g id="Group 337">
<path id="Path 305" d="M37.957 27.4999C37.957 26.5633 38.7163 25.8041 39.6529 25.8041H41.7728C42.7094 25.8041 43.4686 26.5634 43.4686 27.4999C43.4686 28.4366 42.7093 29.1958 41.7728 29.1958H39.6529C38.7162 29.1958 37.957 28.4366 37.957 27.4999Z" fill="#BCCBD3"/>
<path id="Path 306" d="M11.5293 27.4999C11.5293 26.5633 12.2886 25.8041 13.2251 25.8041H15.345C16.2817 25.8041 17.0409 26.5634 17.0409 27.4999C17.0409 28.4366 16.2815 29.1958 15.345 29.1958H13.2251C12.2886 29.1958 11.5293 28.4366 11.5293 27.4999Z" fill="#BCCBD3"/>
</g>
</g>
<g id="Group 341">
<g id="Group 339">
<path id="Path 307" d="M34.8932 20.1051C34.2309 19.4429 34.2309 18.3691 34.8932 17.7068L36.3922 16.2078C37.0545 15.5455 38.1283 15.5455 38.7906 16.2078C39.4528 16.87 39.4528 17.9438 38.7906 18.6061L37.2915 20.1051C36.6293 20.7674 35.5555 20.7674 34.8932 20.1051Z" fill="#BCCBD3"/>
<path id="Path 308" d="M16.2067 38.7921C15.5444 38.1299 15.5444 37.0561 16.2067 36.3938L17.7057 34.8948C18.368 34.2325 19.4418 34.2325 20.104 34.8948C20.7663 35.557 20.7663 36.6308 20.104 37.2931L18.605 38.7921C17.9427 39.4544 16.8689 39.4544 16.2067 38.7921Z" fill="#BCCBD3"/>
</g>
<g id="Group 340">
<path id="Path 309" d="M34.8932 34.8948C35.5555 34.2325 36.6293 34.2325 37.2915 34.8948L38.7906 36.3938C39.4528 37.0561 39.4528 38.1299 38.7906 38.7922C38.1283 39.4544 37.0545 39.4544 36.3922 38.7922L34.8932 37.2931C34.2309 36.6309 34.2309 35.5571 34.8932 34.8948Z" fill="#BCCBD3"/>
<path id="Path 310" d="M16.2067 16.2078C16.869 15.5455 17.9428 15.5455 18.6051 16.2078L20.1041 17.7068C20.7664 18.3691 20.7664 19.4429 20.1041 20.1051C19.4418 20.7674 18.368 20.7674 17.7058 20.1051L16.2067 18.6061C15.5444 17.9438 15.5444 16.8701 16.2067 16.2078Z" fill="#BCCBD3"/>
</g>
</g>
</g>
</g>
<path id="Path 311" d="M20.1146 35.826L24.1392 35.0018C24.5917 34.9091 24.7595 34.3503 24.4329 34.0236L24.0267 33.6175L28.8727 28.7715C29.0908 28.5534 29.0908 28.2 28.8727 27.982L27.2742 26.3835C27.0562 26.1655 26.7028 26.1655 26.4847 26.3835L21.6387 31.2295L21.2326 30.8233C20.9059 30.4967 20.3471 30.6645 20.2545 31.117L19.4301 35.1416C19.3466 35.5492 19.7069 35.9095 20.1146 35.826Z" fill="url(#paint4_linear_0_7891)"/>
<path id="Path 312" d="M27.0151 10.3406L24.7522 13.7693C24.4977 14.1548 24.7742 14.6686 25.2362 14.6686H25.8106V26.7404C25.8106 27.0488 26.0605 27.2987 26.3689 27.2987H28.6294C28.9377 27.2987 29.1877 27.0488 29.1877 26.7404V14.6686H29.7621C30.2241 14.6686 30.5005 14.1548 30.2461 13.7693L27.9832 10.3406C27.7538 9.99324 27.2443 9.99324 27.0151 10.3406Z" fill="url(#paint5_linear_0_7891)"/>
<path id="Ellipse 48" d="M27.4996 30.7816C29.3121 30.7816 30.7814 29.3123 30.7814 27.4998C30.7814 25.6873 29.3121 24.218 27.4996 24.218C25.6871 24.218 24.2178 25.6873 24.2178 27.4998C24.2178 29.3123 25.6871 30.7816 27.4996 30.7816Z" fill="url(#paint6_linear_0_7891)"/>
</g>
<g id="Group 348">
<path id="Path 313" d="M43.5042 55.0002H47.4015C51.5987 55.0002 55.0013 51.5977 55.0013 47.4005C55.0013 43.2033 51.5988 39.8007 47.4015 39.8007H43.5042C43.0622 39.8007 42.6298 39.8406 42.2084 39.913L39.9134 38.7729C39.3428 38.4895 38.6861 38.9545 38.7639 39.5867L38.9743 41.2981C37.1115 42.6832 35.9043 44.9006 35.9043 47.4004C35.9044 51.5977 39.3069 55.0002 43.5042 55.0002Z" fill="url(#paint7_linear_0_7891)"/>
<path id="Path 314" d="M47.4015 55.0006C51.5751 55.0006 54.9614 51.636 54.9995 47.4713L51.801 44.2729C51.5306 43.9089 51.0988 43.672 50.6106 43.672H49.5876C48.7682 43.672 48.104 44.3362 48.104 45.1556V45.6402H44.08L42.6882 44.2729C42.4178 43.9089 41.986 43.672 41.4978 43.672H40.4748C39.6554 43.672 38.9912 44.3362 38.9912 45.1556V49.1443C38.9912 49.6325 39.2281 50.0643 39.5921 50.3347L44.2579 55.0005H47.4015V55.0006Z" fill="url(#paint8_linear_0_7891)"/>
<g id="Group 347">
<g id="Group 345">
<path id="Path 315" d="M42.0283 45.55H48.8764V48.5697H42.0283V45.55Z" fill="url(#paint9_linear_0_7891)"/>
</g>
<path id="Path 316" d="M42.8641 45.55H42.0283V48.5697H45.8837L42.8641 45.55Z" fill="url(#paint10_linear_0_7891)"/>
<g id="Group 346">
<path id="Path 317" d="M41.408 50.538H40.385C39.5656 50.538 38.9014 49.8737 38.9014 49.0544V45.0656C38.9014 44.2462 39.5656 43.582 40.385 43.582H41.408C42.2274 43.582 42.8916 44.2462 42.8916 45.0656V49.0544C42.8916 49.8737 42.2274 50.538 41.408 50.538Z" fill="url(#paint11_linear_0_7891)"/>
<path id="Path 318" d="M50.5213 50.538H49.4983C48.6789 50.538 48.0146 49.8737 48.0146 49.0544V45.0656C48.0146 44.2462 48.6789 43.582 49.4983 43.582H50.5213C51.3407 43.582 52.0049 44.2462 52.0049 45.0656V49.0544C52.0049 49.8737 51.3407 50.538 50.5213 50.538Z" fill="url(#paint12_linear_0_7891)"/>
</g>
</g>
</g>
<path id="Path 319" d="M19.0709 7.64099C15.306 9.24097 12.0904 11.8809 9.78223 15.1995L39.8007 45.2179C43.1267 42.9045 45.7713 39.6797 47.3702 35.9039L19.0709 7.64099Z" fill="url(#paint13_linear_0_7891)"/>
<g id="Group 354">
<path id="Path 320" d="M11.497 9.41334e-07H7.59976C3.40248 9.41334e-07 0 3.40248 0 7.59977C0 11.7969 3.40248 15.1995 7.59976 15.1995H11.4971C11.9391 15.1995 12.3715 15.1596 12.7929 15.0873L15.0879 16.2273C15.6585 16.5107 16.3152 16.0458 16.2374 15.4135L16.027 13.7021C17.8898 12.3171 19.097 10.0996 19.097 7.59987C19.0968 3.40248 15.6943 0 11.497 0L11.497 9.41334e-07Z" fill="url(#paint14_linear_0_7891)"/>
<path id="Path 321" d="M19.097 7.59977C19.097 7.62241 19.097 7.64398 19.0959 7.66663C19.0862 8.86693 18.7983 10.0004 18.2914 11.0055C17.7565 12.0721 16.9768 12.9952 16.0267 13.7016L16.237 15.4131C16.3146 16.0461 15.6579 16.5109 15.0874 16.2273L13.2573 15.3182L12.7925 15.0874C12.3719 15.1596 11.9394 15.1995 11.4972 15.1995H7.59976C5.50112 15.1995 3.60091 14.3486 2.2259 12.9736C0.850889 11.5986 0 9.69841 0 7.59976C0 3.40248 3.40248 0 7.59976 0H11.4972C13.5959 0 15.4961 0.850889 16.8711 2.2259C18.2461 3.60091 19.097 5.50112 19.097 7.59976V7.59977Z" fill="url(#paint15_linear_0_7891)"/>
<g id="Group 353">
<path id="Path 322" d="M16.0262 13.7013L16.2365 15.4128C16.3142 16.0458 15.6574 16.5106 15.0869 16.227L13.2568 15.3179L12.792 15.0871C12.3714 15.1594 11.9389 15.1993 11.4968 15.1993H8.06625L6.42056 13.5536C6.14232 13.3843 5.95575 13.0791 5.95575 12.7296V12.7221C5.95575 12.0136 6.028 11.3072 6.17144 10.6137L6.22536 10.3474C6.55536 8.7448 6.72252 9.33363 6.72252 7.69872V7.30077L5.86085 6.42292C5.39819 6.05733 5.11133 5.49438 5.11133 4.8786V2.22456C5.11133 1.98083 5.31084 1.78563 5.55565 1.79318C5.74653 1.79857 5.9083 1.94632 5.9579 2.1275L6.83683 2.92123V2.22456C6.83683 1.98083 7.03742 1.78563 7.28115 1.79318C7.47311 1.79857 7.6338 1.94632 7.68341 2.1275L8.56126 2.92123V2.24181C8.56126 2.01102 8.74998 1.79965 8.98077 1.79318C9.19107 1.78671 9.36901 1.9323 9.41431 2.1275L10.3924 3.10564L18.2909 11.0052C17.756 12.0718 16.9763 12.9949 16.0262 13.7013L16.0262 13.7013Z" fill="url(#paint16_linear_0_7891)"/>
<path id="Path 323" d="M19.0961 7.66655C19.0864 8.86685 18.7985 10.0003 18.2916 11.0054C17.7567 12.072 16.977 12.9951 16.0269 13.7015L16.2372 15.413C16.3148 16.046 15.6581 16.5108 15.0876 16.2272L13.2575 15.3181L11.5082 13.5688C11.2311 13.3995 11.0467 13.0954 11.0467 12.7471V12.7395C11.0467 12.031 11.1189 11.3246 11.2613 10.6301L11.3163 10.3648C11.6463 8.76224 11.8124 9.34568 11.8124 7.71076V7.46165C11.8124 7.41959 11.8081 7.37753 11.8016 7.33547C11.7444 7.27939 11.0974 6.63772 11.0014 6.52017C10.5139 6.12546 10.2012 5.52153 10.2012 4.84427V4.00417C10.2012 3.68603 10.2702 3.38083 10.3931 3.10583C10.7372 2.33366 11.5093 1.78905 12.4001 1.80631C13.0601 1.81817 13.6489 2.12768 14.0361 2.60651L19.0961 7.66655Z" fill="url(#paint17_linear_0_7891)"/>
<g id="Group 352">
<g id="Group 349">
<path id="Path 324" d="M8.91925 1.73113C8.68857 1.73857 8.5006 1.95005 8.5006 2.18062V3.85695C8.5006 4.08763 8.31327 4.29965 8.08259 4.30644C7.83833 4.31388 7.63806 4.11782 7.63806 3.8755V2.18062C7.63806 1.94994 7.45074 1.73857 7.22006 1.73113C6.97579 1.72433 6.77552 1.91975 6.77552 2.16272V3.85695C6.77552 4.08763 6.58755 4.29965 6.35752 4.30644C6.11325 4.31388 5.91299 4.11782 5.91299 3.8755V2.18062C5.91299 1.94994 5.72502 1.73857 5.49434 1.73113C5.25007 1.72433 5.0498 1.91975 5.0498 2.16272V4.81719C5.0498 5.67919 5.61059 6.44089 6.43366 6.69756L6.43614 6.69821C6.56965 6.73962 6.66121 6.86396 6.66121 7.00427V7.63677C6.66121 9.27158 6.49492 8.68221 6.1647 10.2842L6.11023 10.5501C5.96745 11.2438 5.89508 11.9505 5.89508 12.6592V12.6666C5.89508 13.1996 6.32732 13.6312 6.86029 13.6312H7.5534C8.08637 13.6312 8.5186 13.1996 8.5186 12.6666V12.6592C8.5186 11.9505 8.44624 11.2438 8.30346 10.5501L8.249 10.2842C7.91878 8.68221 7.75248 9.27158 7.75248 7.63677V6.99985C7.75248 6.86191 7.8421 6.74016 7.97388 6.69939L7.98003 6.69756C8.39189 6.5689 8.73753 6.31482 8.9805 5.9846C9.22347 5.65374 9.36389 5.24814 9.36389 4.81719V2.16272C9.36378 1.91975 9.16351 1.72433 8.91925 1.73113Z" fill="url(#paint18_linear_0_7891)"/>
</g>
<g id="Group 351">
<g id="Group 350">
<path id="Path 325" d="M12.3257 1.73136C11.1169 1.70785 10.127 2.72072 10.127 3.93008V4.76976C10.127 5.61568 10.6142 6.34773 11.3228 6.70081C11.5807 6.82947 11.7384 7.09897 11.7384 7.38713V7.63635C11.7384 9.27116 11.5721 8.6818 11.2418 10.2838L11.1874 10.5497C11.0446 11.2434 10.9722 11.9501 10.9722 12.6588V12.6662C10.9722 13.1992 11.4045 13.6308 11.9374 13.6308H12.6306C13.1635 13.6308 13.5958 13.1992 13.5958 12.6662V12.6588C13.5958 11.9501 13.5234 11.2434 13.3806 10.5497L13.3261 10.2838C12.9959 8.6818 12.8296 9.27116 12.8296 7.63635V7.38713C12.8296 7.09897 12.9873 6.82936 13.2452 6.70081C13.9538 6.34773 14.441 5.61568 14.441 4.76976V3.88802C14.4409 2.7108 13.498 1.75358 12.3257 1.73136V1.73136Z" fill="url(#paint19_linear_0_7891)"/>
<path id="Path 326" d="M12.2839 6.92688C11.0927 6.92688 10.127 5.96114 10.127 4.76989V3.88795C10.127 2.6967 11.0927 1.73096 12.2839 1.73096C13.4752 1.73096 14.4409 2.6967 14.4409 3.88795V4.76989C14.4409 5.96114 13.4752 6.92688 12.2839 6.92688Z" fill="url(#paint20_linear_0_7891)"/>
<path id="Path 327" d="M12.2843 6.39135C11.3426 6.39135 10.5791 5.62793 10.5791 4.68612V3.9722C10.5791 3.0305 11.3425 2.26697 12.2843 2.26697C13.226 2.26697 13.9896 3.0304 13.9896 3.9722V4.68612C13.9894 5.62792 13.226 6.39135 12.2843 6.39135Z" fill="url(#paint21_linear_0_7891)"/>
</g>
</g>
</g>
</g>
</g>
<path id="Path 328" d="M44.2352 13.894H39.1475V16.1947L49.0206 26.0678C48.7188 21.4665 46.9748 17.2594 44.2352 13.894Z" fill="url(#paint22_linear_0_7891)"/>
<g id="Group 357">
<path id="Path 329" d="M43.5042 9.41334e-07H47.4015C51.5987 9.41334e-07 55.0013 3.40248 55.0013 7.59977C55.0013 11.7969 51.5988 15.1995 47.4015 15.1995H43.5042C43.0622 15.1995 42.6298 15.1596 42.2084 15.0873L39.9134 16.2273C39.3428 16.5107 38.6861 16.0458 38.7639 15.4135L38.9743 13.7021C37.1115 12.3171 35.9043 10.0996 35.9043 7.59987C35.9044 3.40248 39.3069 0 43.5042 0V9.41334e-07Z" fill="url(#paint23_linear_0_7891)"/>
<path id="Path 330" d="M54.9147 8.7544L50.3143 4.15399C50.1534 3.88319 49.8587 3.70115 49.5209 3.70115H47.5265L46.3386 2.56998C46.2368 2.34545 46.0112 2.18896 45.7486 2.18896H41.2457C40.8878 2.18896 40.5977 2.47917 40.5977 2.83711V9.83478C40.5977 10.1727 40.7797 10.4673 41.0505 10.6282L45.6222 15.1999H47.4022C51.2069 15.1998 54.3586 12.4038 54.9147 8.7544Z" fill="url(#paint24_linear_0_7891)"/>
<g id="Group 356">
<g id="Group 355">
<path id="Path 331" d="M46.3286 3.84917H42.5361V2.76901C42.5361 2.41107 42.8263 2.12097 43.1841 2.12097H45.6804C46.0384 2.12097 46.3285 2.41118 46.3285 2.76901V3.84917H46.3286Z" fill="url(#paint25_linear_0_7891)"/>
<path id="Path 332" d="M45.354 3.84917H41.5615V2.76901C41.5615 2.41107 41.8517 2.12097 42.2096 2.12097H44.7058C45.0638 2.12097 45.3539 2.41118 45.3539 2.76901V3.84917H45.354Z" fill="url(#paint26_linear_0_7891)"/>
<path id="Path 333" d="M44.3217 3.35104V2.76901C44.3217 2.41107 44.0315 2.12097 43.6737 2.12097H41.1773C40.8194 2.12097 40.5293 2.41118 40.5293 2.76901V9.76678C40.5293 10.2767 40.9427 10.69 41.4525 10.69H49.4525C49.9624 10.69 50.3758 10.2767 50.3758 9.76678V4.55641C50.3758 4.04653 49.9624 3.63316 49.4525 3.63316H44.6039C44.448 3.63305 44.3217 3.50687 44.3217 3.35104Z" fill="url(#paint27_linear_0_7891)"/>
<path id="Path 334" d="M40.5293 8.74597V9.76693C40.5293 10.2768 40.9427 10.6902 41.4525 10.6902H49.4525C49.9624 10.6902 50.3758 10.2768 50.3758 9.76693V8.74597H40.5293Z" fill="url(#paint28_linear_0_7891)"/>
</g>
<path id="Path 335" d="M47.3273 13.112H43.5786C43.3389 13.112 43.1445 12.9176 43.1445 12.6779V12.0861C43.1445 11.8463 43.3389 11.652 43.5786 11.652H47.3273C47.567 11.652 47.7614 11.8463 47.7614 12.0861V12.6779C47.7614 12.9176 47.567 13.112 47.3273 13.112Z" fill="#3E5959"/>
</g>
</g>
<path id="Path 336" d="M26.0099 49.0172L15.9248 38.932V45.7027C18.8758 47.5833 22.3152 48.765 26.0099 49.0172Z" fill="url(#paint29_linear_0_7891)"/>
<g id="Group 360">
<path id="Path 337" d="M11.497 55.0002H7.59976C3.40259 55.0002 0 51.5977 0 47.4005C0 43.2033 3.40248 39.8007 7.59976 39.8007H11.4971C11.9391 39.8007 12.3715 39.8406 12.7929 39.913L15.0879 38.7729C15.6585 38.4895 16.3152 38.9545 16.2374 39.5867L16.027 41.2981C17.8898 42.6832 19.097 44.9006 19.097 47.4004C19.0968 51.5977 15.6943 55.0002 11.497 55.0002H11.497Z" fill="url(#paint30_linear_0_7891)"/>
<path id="Path 338" d="M18.9955 48.6341L15.4877 45.1262C14.8035 44.3351 13.7933 43.8338 12.6652 43.8338C12.4072 43.8338 12.1564 43.8628 11.9132 43.9128C11.842 43.8395 11.0589 43.0547 10.9204 42.9377C10.3497 42.2541 9.49136 41.819 8.53134 41.819C6.81284 41.819 5.41982 43.212 5.41982 44.9305C5.41982 45.1787 5.44905 45.4202 5.50405 45.6518C4.03748 45.7551 2.87988 46.9774 2.87988 48.4702C2.87988 49.3483 3.28031 50.1328 3.90861 50.6511L8.25806 55.0006H11.4968C15.2741 55.0006 18.4061 52.2446 18.9955 48.6341Z" fill="url(#paint31_linear_0_7891)"/>
<g id="Group 359">
<g id="Group 358">
<path id="Path 339" d="M12.5754 43.7438C12.1708 43.7438 11.7815 43.8084 11.4167 43.9275C11.0265 42.6546 9.84217 41.729 8.44149 41.729C6.72311 41.729 5.32998 43.122 5.32998 44.8405C5.32998 45.0888 5.35921 45.3302 5.41421 45.5618C3.94764 45.6652 2.79004 46.8875 2.79004 48.3803C2.79004 49.9409 4.05516 51.206 5.61577 51.206H12.5754C14.6359 51.206 16.3064 49.5355 16.3064 47.4749C16.3064 45.4143 14.6359 43.7438 12.5754 43.7438Z" fill="url(#paint32_linear_0_7891)"/>
<path id="Path 340" d="M2.8125 48.7321C2.9857 50.1267 4.175 51.2061 5.61644 51.2061H12.576C14.1955 51.2061 15.5738 50.1741 16.0898 48.7321H2.8125Z" fill="url(#paint33_linear_0_7891)"/>
<path id="Path 341" d="M8.84428 47.4749C8.84428 47.6262 8.85334 47.7754 8.87092 47.922C8.73061 47.9418 8.58707 47.9519 8.44138 47.9519C6.72288 47.9519 5.33008 46.5588 5.33008 44.8403C5.33008 43.1221 6.72289 41.729 8.44138 41.729C9.84206 41.729 11.0267 42.6546 11.4167 43.9275C9.92337 44.4144 8.84428 45.8187 8.84428 47.4749Z" fill="url(#paint34_linear_0_7891)"/>
</g>
<path id="Path 342" d="M12.5759 51.2063C13.1606 51.2063 13.714 51.0716 14.2066 50.8319L9.96724 46.593L9.96594 46.5911C9.78368 46.315 9.37862 46.315 9.19636 46.5911L7.39732 49.317C7.24741 49.544 7.32938 49.8269 7.53104 49.9583L8.62328 51.0593V51.2063H12.5759Z" fill="url(#paint35_linear_0_7891)"/>
<path id="Path 343" d="M9.16319 46.5911L7.36414 49.317C7.16183 49.6235 7.38161 50.032 7.74893 50.032H8.59011V52.2351C8.59011 52.4802 8.78887 52.679 9.034 52.679H10.0622C10.3073 52.679 10.5061 52.4802 10.5061 52.2351V50.032H11.3473C11.7146 50.032 11.9344 49.6235 11.732 49.317L9.93298 46.5911C9.75051 46.315 9.34545 46.315 9.16319 46.5911Z" fill="url(#paint36_linear_0_7891)"/>
</g>
</g>
</g>
<defs>
<linearGradient id="paint0_linear_0_7891" x1="8.26964" y1="28.2688" x2="28.2684" y2="48.2677" gradientUnits="userSpaceOnUse">
<stop stop-color="#537983"/>
<stop offset="1" stop-color="#3E5959"/>
</linearGradient>
<linearGradient id="paint1_linear_0_7891" x1="33.2557" y1="-55.4805" x2="51.6442" y2="-37.0919" gradientUnits="userSpaceOnUse">
<stop stop-color="#537983"/>
<stop offset="1" stop-color="#3E5959"/>
</linearGradient>
<linearGradient id="paint2_linear_0_7891" x1="13.9489" y1="26.3455" x2="26.3448" y2="38.7413" gradientUnits="userSpaceOnUse">
<stop stop-color="white"/>
<stop offset="1" stop-color="#EEF5F6"/>
</linearGradient>
<linearGradient id="paint3_linear_0_7891" x1="38.7059" y1="12.5426" x2="10.2723" y2="3.0107" gradientUnits="userSpaceOnUse">
<stop stop-color="#3E5959" stop-opacity="0.01"/>
<stop offset="0.8153" stop-color="#394C4C" stop-opacity="0.815686"/>
<stop offset="1" stop-color="#384949"/>
</linearGradient>
<linearGradient id="paint4_linear_0_7891" x1="19.9828" y1="32.2067" x2="24.6122" y2="36.8362" gradientUnits="userSpaceOnUse">
<stop stop-color="#FFE177"/>
<stop offset="1" stop-color="#FE9738"/>
</linearGradient>
<linearGradient id="paint5_linear_0_7891" x1="24.6552" y1="27.2987" x2="30.3429" y2="27.2987" gradientUnits="userSpaceOnUse">
<stop stop-color="#FFE177"/>
<stop offset="1" stop-color="#FE9738"/>
</linearGradient>
<linearGradient id="paint6_linear_0_7891" x1="24.5737" y1="27.6168" x2="27.6166" y2="30.6598" gradientUnits="userSpaceOnUse">
<stop stop-color="#FE99A0"/>
<stop offset="1" stop-color="#FD4755"/>
</linearGradient>
<linearGradient id="paint7_linear_0_7891" x1="39.0141" y1="41.7406" x2="39.0141" y2="52.7402" gradientUnits="userSpaceOnUse">
<stop stop-color="#FFE177"/>
<stop offset="1" stop-color="#FE9738"/>
</linearGradient>
<linearGradient id="paint8_linear_0_7891" x1="55.9439" y1="53.9445" x2="54.4259" y2="43.8589" gradientUnits="userSpaceOnUse">
<stop stop-color="#FE9738" stop-opacity="0.01"/>
<stop offset="1" stop-color="#F46700"/>
</linearGradient>
<linearGradient id="paint9_linear_0_7891" x1="42.9793" y1="46.1162" x2="42.9793" y2="48.2972" gradientUnits="userSpaceOnUse">
<stop stop-color="#537983"/>
<stop offset="1" stop-color="#3E5959"/>
</linearGradient>
<linearGradient id="paint10_linear_0_7891" x1="47.6851" y1="49.3453" x2="45.6231" y2="45.9838" gradientUnits="userSpaceOnUse">
<stop stop-color="#3E5959" stop-opacity="0.01"/>
<stop offset="1" stop-color="#384949"/>
</linearGradient>
<linearGradient id="paint11_linear_0_7891" x1="38.9014" y1="50.538" x2="42.8916" y2="50.538" gradientUnits="userSpaceOnUse">
<stop stop-color="#537983"/>
<stop offset="1" stop-color="#3E5959"/>
</linearGradient>
<linearGradient id="paint12_linear_0_7891" x1="48.0146" y1="50.538" x2="52.0049" y2="50.538" gradientUnits="userSpaceOnUse">
<stop stop-color="#537983"/>
<stop offset="1" stop-color="#3E5959"/>
</linearGradient>
<linearGradient id="paint13_linear_0_7891" x1="24.2824" y1="13.5189" x2="16.5457" y2="5.77766" gradientUnits="userSpaceOnUse">
<stop stop-color="#3E5959" stop-opacity="0.01"/>
<stop offset="0.8153" stop-color="#394C4C" stop-opacity="0.815686"/>
<stop offset="1" stop-color="#384949"/>
</linearGradient>
<linearGradient id="paint14_linear_0_7891" x1="-0.395486" y1="3.2351" x2="-0.395486" y2="20.2228" gradientUnits="userSpaceOnUse">
<stop stop-color="#60B7FF"/>
<stop offset="1" stop-color="#0268B4"/>
</linearGradient>
<linearGradient id="paint15_linear_0_7891" x1="3.67493" y1="3.7272" x2="3.67493" y2="13.7614" gradientUnits="userSpaceOnUse">
<stop stop-color="#60B7FF"/>
<stop offset="1" stop-color="#0268B4"/>
</linearGradient>
<linearGradient id="paint16_linear_0_7891" x1="18.6906" y1="5.5657" x2="7.71995" y2="2.31137" gradientUnits="userSpaceOnUse">
<stop stop-color="#0268B4" stop-opacity="0.01"/>
<stop offset="1" stop-color="#0268B4"/>
</linearGradient>
<linearGradient id="paint17_linear_0_7891" x1="19.8631" y1="6.15895" x2="12.8419" y2="4.78162" gradientUnits="userSpaceOnUse">
<stop stop-color="#0268B4" stop-opacity="0.01"/>
<stop offset="1" stop-color="#0268B4"/>
</linearGradient>
<linearGradient id="paint18_linear_0_7891" x1="5.88258" y1="10.962" x2="8.2614" y2="10.962" gradientUnits="userSpaceOnUse">
<stop stop-color="#EEF5F6"/>
<stop offset="1" stop-color="#CBE5E8"/>
</linearGradient>
<linearGradient id="paint19_linear_0_7891" x1="10.9969" y1="11.9507" x2="14.0928" y2="11.9507" gradientUnits="userSpaceOnUse">
<stop stop-color="#EEF5F6"/>
<stop offset="1" stop-color="#CBE5E8"/>
</linearGradient>
<linearGradient id="paint20_linear_0_7891" x1="11.1356" y1="9.6338" x2="19.8875" y2="12.5695" gradientUnits="userSpaceOnUse">
<stop stop-color="#EEF5F6"/>
<stop offset="1" stop-color="#CBE5E8"/>
</linearGradient>
<linearGradient id="paint21_linear_0_7891" x1="15.1506" y1="3.59084" x2="11.0885" y2="0.813349" gradientUnits="userSpaceOnUse">
<stop stop-color="#EEF5F6"/>
<stop offset="1" stop-color="#CBE5E8"/>
</linearGradient>
<linearGradient id="paint22_linear_0_7891" x1="48.5399" y1="21.4225" x2="44.8201" y2="12.8931" gradientUnits="userSpaceOnUse">
<stop stop-color="#3E5959" stop-opacity="0.01"/>
<stop offset="0.8153" stop-color="#394C4C" stop-opacity="0.815686"/>
<stop offset="1" stop-color="#384949"/>
</linearGradient>
<linearGradient id="paint23_linear_0_7891" x1="38.7901" y1="3.30725" x2="38.7901" y2="14.6895" gradientUnits="userSpaceOnUse">
<stop stop-color="#FFF3AF"/>
<stop offset="1" stop-color="#F7E36D"/>
</linearGradient>
<linearGradient id="paint24_linear_0_7891" x1="60.5391" y1="11.355" x2="50.8184" y2="-0.415201" gradientUnits="userSpaceOnUse">
<stop stop-color="#FFC4C8" stop-opacity="0.01"/>
<stop offset="1" stop-color="#E8D041"/>
</linearGradient>
<linearGradient id="paint25_linear_0_7891" x1="43.8852" y1="2.74517" x2="43.8852" y2="3.24384" gradientUnits="userSpaceOnUse">
<stop stop-color="#FE9738"/>
<stop offset="1" stop-color="#F46700"/>
</linearGradient>
<linearGradient id="paint26_linear_0_7891" x1="41.9488" y1="2.02769" x2="41.9488" y2="3.40291" gradientUnits="userSpaceOnUse">
<stop stop-color="#FFE177"/>
<stop offset="1" stop-color="#FE9738"/>
</linearGradient>
<linearGradient id="paint27_linear_0_7891" x1="37.9531" y1="5.76921" x2="43.069" y2="12.5241" gradientUnits="userSpaceOnUse">
<stop stop-color="#FFE177"/>
<stop offset="1" stop-color="#FE9738"/>
</linearGradient>
<linearGradient id="paint28_linear_0_7891" x1="41.0512" y1="8.72505" x2="41.0512" y2="10.4632" gradientUnits="userSpaceOnUse">
<stop stop-color="#FE9738" stop-opacity="0.01"/>
<stop offset="1" stop-color="#F46700"/>
</linearGradient>
<linearGradient id="paint29_linear_0_7891" x1="26.8694" y1="40.463" x2="15.4021" y2="35.3225" gradientUnits="userSpaceOnUse">
<stop stop-color="#3E5959" stop-opacity="0.01"/>
<stop offset="0.8153" stop-color="#394C4C" stop-opacity="0.815686"/>
<stop offset="1" stop-color="#384949"/>
</linearGradient>
<linearGradient id="paint30_linear_0_7891" x1="2.77187" y1="40.9318" x2="2.77187" y2="52.5085" gradientUnits="userSpaceOnUse">
<stop stop-color="#7AF3B3"/>
<stop offset="1" stop-color="#2BD67B"/>
</linearGradient>
<linearGradient id="paint31_linear_0_7891" x1="24.6328" y1="51.3928" x2="18.496" y2="33.104" gradientUnits="userSpaceOnUse">
<stop stop-color="#4FC123" stop-opacity="0.01"/>
<stop offset="0.1348" stop-color="#4BAB2F" stop-opacity="0.133333"/>
<stop offset="0.385" stop-color="#468741" stop-opacity="0.384314"/>
<stop offset="0.6201" stop-color="#426E4E" stop-opacity="0.619608"/>
<stop offset="0.8318" stop-color="#3F5E56" stop-opacity="0.831373"/>
<stop offset="1" stop-color="#3E5959"/>
</linearGradient>
<linearGradient id="paint32_linear_0_7891" x1="0.452531" y1="46.4309" x2="4.77557" y2="55.2246" gradientUnits="userSpaceOnUse">
<stop stop-color="#EEF5F6"/>
<stop offset="1" stop-color="#CBE5E8"/>
</linearGradient>
<linearGradient id="paint33_linear_0_7891" x1="2.87761" y1="50.0558" x2="2.87761" y2="52.5056" gradientUnits="userSpaceOnUse">
<stop stop-color="#CBE5E8" stop-opacity="0.01"/>
<stop offset="0.0227" stop-color="#C8E2E6" stop-opacity="0.0235294"/>
<stop offset="0.2928" stop-color="#A7C6CF" stop-opacity="0.294118"/>
<stop offset="0.5522" stop-color="#8FB2BE" stop-opacity="0.552941"/>
<stop offset="0.7938" stop-color="#81A6B5" stop-opacity="0.792157"/>
<stop offset="1" stop-color="#7CA1B1"/>
</linearGradient>
<linearGradient id="paint34_linear_0_7891" x1="9.12599" y1="48.2598" x2="15.7275" y2="46.4239" gradientUnits="userSpaceOnUse">
<stop stop-color="#CBE5E8" stop-opacity="0.01"/>
<stop offset="0.0227" stop-color="#C8E2E6" stop-opacity="0.0235294"/>
<stop offset="0.2928" stop-color="#A7C6CF" stop-opacity="0.294118"/>
<stop offset="0.5522" stop-color="#8FB2BE" stop-opacity="0.552941"/>
<stop offset="0.7938" stop-color="#81A6B5" stop-opacity="0.792157"/>
<stop offset="1" stop-color="#7CA1B1"/>
</linearGradient>
<linearGradient id="paint35_linear_0_7891" x1="16.7938" y1="49.7157" x2="13.0979" y2="42.1788" gradientUnits="userSpaceOnUse">
<stop stop-color="#CBE5E8" stop-opacity="0.01"/>
<stop offset="0.0227" stop-color="#C8E2E6" stop-opacity="0.0235294"/>
<stop offset="0.2928" stop-color="#A7C6CF" stop-opacity="0.294118"/>
<stop offset="0.5522" stop-color="#8FB2BE" stop-opacity="0.552941"/>
<stop offset="0.7938" stop-color="#81A6B5" stop-opacity="0.792157"/>
<stop offset="1" stop-color="#7CA1B1"/>
</linearGradient>
<linearGradient id="paint36_linear_0_7891" x1="6.84387" y1="50.1265" x2="10.2996" y2="51.9097" gradientUnits="userSpaceOnUse">
<stop stop-color="#60B7FF"/>
<stop offset="1" stop-color="#0268B4"/>
</linearGradient>
</defs>
</svg>
