<svg width="66" height="47" viewBox="0 0 66 47" fill="none" xmlns="http://www.w3.org/2000/svg">
<g id="icon">
<g id="Group 304">
<g id="Group 303">
<g id="Group 302">
<path id="Path 226" d="M58.6159 7.62939e-06H6.83497C5.70076 7.62939e-06 4.78125 0.919487 4.78125 2.0537V36.8998H60.6696V2.0537C60.6696 0.919487 59.7501 0 58.6159 0V7.62939e-06Z" fill="url(#paint0_linear_0_7735)"/>
<path id="Path 227" d="M56.5617 1.97498H8.88825C7.74775 1.97498 6.82324 2.89949 6.82324 4.03999V32.8595C6.82324 34 7.74775 34.9245 8.88825 34.9245H56.5617C57.7022 34.9245 58.6267 34 58.6267 32.8595V4.03986C58.6266 2.89949 57.7021 1.97498 56.5617 1.97498V1.97498Z" fill="url(#paint1_linear_0_7735)"/>
<path id="Path 228" d="M8.88789 34.9241H38.6805L26.7148 22.9584C26.6504 22.7162 26.4317 22.537 26.1693 22.537H7.53937C7.22637 22.537 6.97266 22.7907 6.97266 23.1037V33.0094C6.97266 33.5417 7.17529 34.0251 7.50613 34.3906C7.87239 34.7211 8.35582 34.9241 8.88789 34.9241Z" fill="url(#paint2_linear_0_7735)"/>
<g id="Group 301">
<path id="Path 229" d="M60.298 36.631H5.15295C4.60458 36.631 4.09382 36.9098 3.79698 37.3708L0.605206 42.3301C0.392559 42.6605 0.629718 43.0952 1.02267 43.0952H64.4282C64.8211 43.0952 65.0583 42.6605 64.8456 42.3301L61.6538 37.3708C61.3571 36.9098 60.8464 36.631 60.298 36.631Z" fill="url(#paint3_linear_0_7735)"/>
<path id="Path 230" d="M63.4298 46.9999H2.02009C0.904364 46.9999 0 46.0956 0 44.98V43.768C0 42.6524 0.904364 41.7479 2.02009 41.7479H63.4298C64.5454 41.7479 65.4499 42.6523 65.4499 43.768V44.98C65.4499 46.0956 64.5456 46.9999 63.4298 46.9999Z" fill="url(#paint4_linear_0_7735)"/>
<path id="Path 231" d="M29.4932 40.4459H35.9574C36.6268 40.4459 37.1694 40.9886 37.1694 41.6579C37.1694 42.3273 36.6268 42.8699 35.9574 42.8699H29.4932C28.8239 42.8699 28.2813 42.3273 28.2813 41.6579C28.2811 40.9886 28.8239 40.4459 29.4932 40.4459Z" fill="url(#paint5_linear_0_7735)"/>
<path id="Path 232" d="M58.9283 39.0038L57.5935 36.631H7.85591L6.52112 39.0038C6.27127 39.4481 6.59222 39.997 7.10196 39.997H58.3475C58.8572 39.997 59.1783 39.4481 58.9283 39.0038Z" fill="url(#paint6_linear_0_7735)"/>
</g>
</g>
</g>
</g>
<path id="Path 233" d="M23.0998 12.3559C22.9193 12.3559 22.7386 12.287 22.6007 12.1492L19.3849 8.93344C19.2747 8.82332 19.1282 8.76262 18.9722 8.76262H15.742C15.3522 8.76262 15.0361 8.44656 15.0361 8.05679C15.0361 7.66702 15.3522 7.35095 15.742 7.35095H18.9722C19.5052 7.35095 20.0064 7.5585 20.383 7.93536L23.5988 11.1511C23.8744 11.4267 23.8744 11.8737 23.5988 12.1492C23.4611 12.287 23.2804 12.3559 23.0998 12.3559H23.0998Z" fill="url(#paint7_linear_0_7735)"/>
<path id="Path 234" d="M36.361 10.1315C36.1805 10.1315 35.9999 10.0626 35.862 9.9248C35.5864 9.64924 35.5864 9.20229 35.862 8.92674L38.942 5.84676C39.0743 5.7143 39.2539 5.64001 39.4411 5.64001H43.12C43.5098 5.64001 43.8259 5.95609 43.8259 6.34583C43.8259 6.73558 43.5098 7.05166 43.12 7.05166H39.7334L36.8601 9.92493C36.7224 10.0626 36.5417 10.1315 36.361 10.1315V10.1315Z" fill="url(#paint8_linear_0_7735)"/>
<path id="Path 235" d="M47.9112 16.8057H42.5214C42.1316 16.8057 41.8154 16.4897 41.8154 16.0999C41.8154 15.7102 42.1316 15.394 42.5214 15.394H47.9112C48.3011 15.394 48.6172 15.7102 48.6172 16.0999C48.6172 16.4897 48.3011 16.8057 47.9112 16.8057Z" fill="url(#paint9_linear_0_7735)"/>
<g id="Group 305">
<path id="Path 236" d="M32.725 30.0028C32.725 30.4664 32.3333 30.8366 31.8709 30.8052C25.4297 30.3664 20.3408 25.0024 20.3408 18.45C20.3408 11.8976 25.4297 6.53365 31.8709 6.09488C32.3333 6.06346 32.725 6.43369 32.725 6.89722V30.0028Z" fill="url(#paint10_linear_0_7735)"/>
<path id="Path 237" d="M31.8717 30.8054C32.3341 30.8368 32.7258 30.4666 32.7258 30.003V28.9691L26.7161 22.9595C26.6516 22.7173 26.433 22.538 26.1705 22.538H21.0322C22.6311 27.1125 26.8385 30.4626 31.8717 30.8054Z" fill="url(#paint11_linear_0_7735)"/>
<path id="Path 238" d="M32.7246 7.76001V18.4503L40.2837 10.8912C38.3493 8.95659 35.6767 7.76001 32.7246 7.76001Z" fill="url(#paint12_linear_0_7735)"/>
<path id="Path 239" d="M40.2869 10.8872L32.7246 18.4495V29.978C39.0918 29.978 44.2532 24.8165 44.2532 18.4495C44.2532 15.5747 43.2009 12.9456 41.4606 10.9266C41.157 10.5743 40.6158 10.5582 40.2869 10.8872Z" fill="url(#paint13_linear_0_7735)"/>
<path id="Path 240" d="M36.2538 8.35904C35.1485 7.97252 33.9618 7.76001 32.7246 7.76001V18.4503L36.2538 14.9211V8.35904Z" fill="url(#paint14_linear_0_7735)"/>
<path id="Path 241" d="M36.2538 14.921L32.7246 18.4502V29.9787C33.9558 29.9787 35.1413 29.7849 36.2538 29.4277V14.921Z" fill="url(#paint15_linear_0_7735)"/>
</g>
<g id="Group 307">
<g id="Group 306">
<path id="Path 242" d="M55.2022 25.9174H46.1396C45.8543 25.9174 45.623 25.6862 45.623 25.401V24.6967C45.623 24.4114 45.8543 24.1801 46.1396 24.1801H55.2022C55.4875 24.1801 55.7188 24.4114 55.7188 24.6967V25.401C55.7188 25.6862 55.4875 25.9174 55.2022 25.9174H55.2022Z" fill="#3E5959"/>
<path id="Path 243" d="M55.2022 28.8284H46.1396C45.8543 28.8284 45.623 28.5972 45.623 28.3119V27.6076C45.623 27.3223 45.8543 27.0911 46.1396 27.0911H55.2022C55.4875 27.0911 55.7188 27.3223 55.7188 27.6076V28.3119C55.7188 28.5972 55.4875 28.8284 55.2022 28.8284H55.2022Z" fill="#3E5959"/>
<path id="Path 244" d="M50.6005 31.7405H46.1396C45.8543 31.7405 45.623 31.5092 45.623 31.2239V30.5196C45.623 30.2343 45.8543 30.0031 46.1396 30.0031H50.6005C50.8857 30.0031 51.1169 30.2343 51.1169 30.5196V31.2239C51.1169 31.5092 50.8857 31.7405 50.6005 31.7405Z" fill="#3E5959"/>
</g>
<path id="Path 245" d="M54.535 17.0244H50.0742C49.7888 17.0244 49.5576 16.7932 49.5576 16.5079V15.8036C49.5576 15.5184 49.7888 15.2871 50.0742 15.2871H54.535C54.8203 15.2871 55.0516 15.5184 55.0516 15.8036V16.5079C55.0516 16.7932 54.8203 17.0244 54.535 17.0244Z" fill="#3E5959"/>
<path id="Path 246" d="M49.9697 7.21443H45.5088C45.2235 7.21443 44.9922 6.98318 44.9922 6.6979V5.99359C44.9922 5.70831 45.2235 5.47705 45.5088 5.47705H49.9697C50.255 5.47705 50.4862 5.70831 50.4862 5.99359V6.6979C50.4862 6.98318 50.255 7.21443 49.9697 7.21443Z" fill="#3E5959"/>
<path id="Path 247" d="M13.8661 8.9255H9.40522C9.11993 8.9255 8.88867 8.69425 8.88867 8.40899V7.70469C8.88867 7.4194 9.11993 7.18811 9.40522 7.18811H13.8661C14.1514 7.18811 14.3826 7.4194 14.3826 7.70469V8.40899C14.3826 8.69425 14.1514 8.9255 13.8661 8.9255Z" fill="#3E5959"/>
</g>
<g id="Group 314">
<path id="Path 248" d="M6.82324 23.9709V32.8604C6.82324 34.0012 7.74711 34.925 8.88774 34.925H26.0943V23.9709H6.82324Z" fill="url(#paint16_linear_0_7735)"/>
<g id="Group 313">
<path id="Path 249" d="M13.1504 34.9254C13.1504 33.471 14.3294 32.292 15.7838 32.292H17.1342C18.5886 32.292 19.7676 33.471 19.7676 34.9254H13.1504Z" fill="url(#paint17_linear_0_7735)"/>
<g id="Group 308">
<path id="Path 250" d="M13.4456 25.8103C12.3887 25.7902 11.5234 26.6809 11.5234 27.7381V28.8693C11.5234 29.2626 11.8422 29.5814 12.2354 29.5814C12.6286 29.5814 12.9474 29.2626 12.9474 28.8693V28.4407C12.9474 27.8087 13.4332 27.2649 14.0644 27.2352C14.7384 27.2034 15.2949 27.7405 15.2949 28.4076V27.6957C15.2949 26.6663 14.4702 25.8296 13.4456 25.8103Z" fill="url(#paint18_linear_0_7735)"/>
<path id="Path 251" d="M19.4723 25.8103C20.5293 25.7902 21.3945 26.6809 21.3945 27.7381V28.8693C21.3945 29.2626 21.0757 29.5814 20.6825 29.5814C20.2893 29.5814 19.9706 29.2626 19.9706 28.8693V28.4407C19.9706 27.8087 19.4848 27.2649 18.8535 27.2352C18.1795 27.2034 17.623 27.7405 17.623 28.4076V27.6957C17.623 26.6663 18.4477 25.8296 19.4723 25.8103Z" fill="url(#paint19_linear_0_7735)"/>
</g>
<g id="Group 311">
<g id="Group 309">
<path id="Path 252" d="M13.167 29.6128C13.167 29.1822 13.4659 28.8215 13.8674 28.7266C13.9747 28.7013 14.0774 28.7842 14.0774 28.8946V30.3308C14.0774 30.441 13.9747 30.524 13.8674 30.4988C13.4659 30.4041 13.167 30.0433 13.167 29.6128Z" fill="url(#paint20_linear_0_7735)"/>
<path id="Path 253" d="M19.7493 29.6128C19.7493 29.1822 19.4504 28.8215 19.0489 28.7266C18.9416 28.7013 18.8389 28.7842 18.8389 28.8946V30.3308C18.8389 30.441 18.9416 30.524 19.0489 30.4988C19.4504 30.4041 19.7493 30.0433 19.7493 29.6128Z" fill="url(#paint21_linear_0_7735)"/>
</g>
<path id="Path 254" d="M16.4586 32.9664C15.0042 32.9664 13.8252 31.7874 13.8252 30.333V28.9824C13.8252 27.528 15.0042 26.349 16.4586 26.349C17.913 26.349 19.092 27.528 19.092 28.9824V30.3329C19.092 31.7874 17.913 32.9664 16.4586 32.9664Z" fill="url(#paint22_linear_0_7735)"/>
<path id="Path 255" d="M16.4578 32.116C15.974 32.116 15.5687 31.7801 15.4622 31.3289C15.4337 31.2083 15.527 31.093 15.651 31.093H17.2648C17.3887 31.093 17.4819 31.2083 17.4535 31.3289C17.3469 31.7802 16.9416 32.116 16.4578 32.116Z" fill="url(#paint23_linear_0_7735)"/>
<g id="Group 310">
<path id="Path 256" d="M15.3778 30.0375C15.1417 30.0375 14.9502 29.8461 14.9502 29.6099V29.3906C14.9502 29.1545 15.1417 28.963 15.3778 28.963C15.6139 28.963 15.8054 29.1545 15.8054 29.3906V29.6099C15.8055 29.8461 15.6141 30.0375 15.3778 30.0375Z" fill="url(#paint24_linear_0_7735)"/>
<path id="Path 257" d="M17.539 30.0375C17.3028 30.0375 17.1113 29.8461 17.1113 29.6099V29.3906C17.1113 29.1545 17.3028 28.963 17.539 28.963C17.7751 28.963 17.9666 29.1545 17.9666 29.3906V29.6099C17.9666 29.8461 17.7751 30.0375 17.539 30.0375Z" fill="url(#paint25_linear_0_7735)"/>
</g>
<path id="Path 258" d="M16.6035 30.6595H16.3126C16.07 30.6595 15.8865 30.4404 15.929 30.2016L16.0958 29.264H16.8204L16.9872 30.2016C17.0296 30.4403 16.8459 30.6595 16.6035 30.6595Z" fill="url(#paint26_linear_0_7735)"/>
</g>
<g id="Group 312">
<path id="Path 259" d="M15.7457 27.2702C15.7457 28.2376 14.9615 29.0218 13.9941 29.0218C13.4791 29.0218 13.1049 28.5239 13.2568 28.0319C13.4307 27.4687 13.7491 26.969 14.1688 26.5759C14.7662 26.0161 15.7457 26.4515 15.7457 27.2702Z" fill="url(#paint27_linear_0_7735)"/>
<path id="Path 260" d="M15.0117 26.6495C15.0117 26.213 15.3179 25.8387 15.7445 25.7457C15.9752 25.6954 16.2148 25.6689 16.4607 25.6689C17.9646 25.6689 19.2373 26.6593 19.6621 28.0235C19.8163 28.5184 19.4455 29.0214 18.927 29.0214H17.3834C16.0737 29.0214 15.0117 27.9595 15.0117 26.6495Z" fill="url(#paint28_linear_0_7735)"/>
</g>
</g>
<path id="Path 261" d="M25.5391 24.8264H7.38996C7.07696 24.8264 6.82324 24.5727 6.82324 24.2597V22.9547C6.82324 22.6416 7.07696 22.3879 7.38996 22.3879H25.539C25.852 22.3879 26.1057 22.6416 26.1057 22.9547V24.2597C26.1057 24.5727 25.8521 24.8264 25.5391 24.8264Z" fill="url(#paint29_linear_0_7735)"/>
</g>
</g>
<defs>
<linearGradient id="paint0_linear_0_7735" x1="2.04509" y1="9.76016" x2="8.62722" y2="43.3458" gradientUnits="userSpaceOnUse">
<stop stop-color="#537983"/>
<stop offset="1" stop-color="#3E5959"/>
</linearGradient>
<linearGradient id="paint1_linear_0_7735" x1="-1.18887" y1="12.0566" x2="10.9824" y2="42.1418" gradientUnits="userSpaceOnUse">
<stop stop-color="#EEF5F6"/>
<stop offset="1" stop-color="#CBE5E8"/>
</linearGradient>
<linearGradient id="paint2_linear_0_7735" x1="57.019" y1="40.5089" x2="53.7538" y2="19.1147" gradientUnits="userSpaceOnUse">
<stop stop-color="#CBE5E8" stop-opacity="0.01"/>
<stop offset="0.0977" stop-color="#BCD8DE" stop-opacity="0.0980392"/>
<stop offset="0.322" stop-color="#A0C0CA" stop-opacity="0.321569"/>
<stop offset="0.5476" stop-color="#8CAFBC" stop-opacity="0.54902"/>
<stop offset="0.7734" stop-color="#80A5B4" stop-opacity="0.772549"/>
<stop offset="1" stop-color="#7CA1B1"/>
</linearGradient>
<linearGradient id="paint3_linear_0_7735" x1="-4.84109" y1="37.3043" x2="-4.84109" y2="44.846" gradientUnits="userSpaceOnUse">
<stop stop-color="#537983"/>
<stop offset="1" stop-color="#3E5959"/>
</linearGradient>
<linearGradient id="paint4_linear_0_7735" x1="13.6937" y1="42.4255" x2="13.6937" y2="45.4798" gradientUnits="userSpaceOnUse">
<stop stop-color="#537983"/>
<stop offset="1" stop-color="#3E5959"/>
</linearGradient>
<linearGradient id="paint5_linear_0_7735" x1="36.6113" y1="43.0271" x2="36.6113" y2="40.9075" gradientUnits="userSpaceOnUse">
<stop stop-color="#537983"/>
<stop offset="1" stop-color="#3E5959"/>
</linearGradient>
<linearGradient id="paint6_linear_0_7735" x1="-18.8171" y1="33.265" x2="-18.8171" y2="39.864" gradientUnits="userSpaceOnUse">
<stop stop-color="#537983"/>
<stop offset="1" stop-color="#3E5959"/>
</linearGradient>
<linearGradient id="paint7_linear_0_7735" x1="15.0363" y1="12.3559" x2="23.8057" y2="12.3559" gradientUnits="userSpaceOnUse">
<stop stop-color="#CBE5E8"/>
<stop offset="1" stop-color="#8EBAC5"/>
</linearGradient>
<linearGradient id="paint8_linear_0_7735" x1="35.6553" y1="10.1315" x2="43.8259" y2="10.1315" gradientUnits="userSpaceOnUse">
<stop stop-color="#CBE5E8"/>
<stop offset="1" stop-color="#8EBAC5"/>
</linearGradient>
<linearGradient id="paint9_linear_0_7735" x1="41.8154" y1="16.8057" x2="48.6172" y2="16.8057" gradientUnits="userSpaceOnUse">
<stop stop-color="#CBE5E8"/>
<stop offset="1" stop-color="#8EBAC5"/>
</linearGradient>
<linearGradient id="paint10_linear_0_7735" x1="20.6164" y1="26.848" x2="37.2966" y2="31.0364" gradientUnits="userSpaceOnUse">
<stop stop-color="#60B7FF"/>
<stop offset="1" stop-color="#416FF4"/>
</linearGradient>
<linearGradient id="paint11_linear_0_7735" x1="35.0215" y1="28.2697" x2="31.3788" y2="20.9855" gradientUnits="userSpaceOnUse">
<stop stop-color="#0268B4" stop-opacity="0.01"/>
<stop offset="1" stop-color="#0268B4"/>
</linearGradient>
<linearGradient id="paint12_linear_0_7735" x1="30.9778" y1="13.6243" x2="36.0462" y2="16.1583" gradientUnits="userSpaceOnUse">
<stop stop-color="#FE99A0"/>
<stop offset="1" stop-color="#FD4755"/>
</linearGradient>
<linearGradient id="paint13_linear_0_7735" x1="33.9877" y1="24.6665" x2="41.7399" y2="27.4248" gradientUnits="userSpaceOnUse">
<stop stop-color="#FFE177"/>
<stop offset="1" stop-color="#FE9738"/>
</linearGradient>
<linearGradient id="paint14_linear_0_7735" x1="35.4196" y1="8.8245" x2="32.5933" y2="8.8245" gradientUnits="userSpaceOnUse">
<stop stop-color="#FD4755" stop-opacity="0.01"/>
<stop offset="1" stop-color="#C41926"/>
</linearGradient>
<linearGradient id="paint15_linear_0_7735" x1="35.3555" y1="16.8359" x2="32.7238" y2="16.8359" gradientUnits="userSpaceOnUse">
<stop stop-color="#FE9738" stop-opacity="0.01"/>
<stop offset="1" stop-color="#F46700"/>
</linearGradient>
<linearGradient id="paint16_linear_0_7735" x1="7.89318" y1="27.1127" x2="9.32439" y2="35.7006" gradientUnits="userSpaceOnUse">
<stop stop-color="#5BF2A2"/>
<stop offset="1" stop-color="#2BD67B"/>
</linearGradient>
<linearGradient id="paint17_linear_0_7735" x1="11.461" y1="32.7982" x2="11.6344" y2="36.2871" gradientUnits="userSpaceOnUse">
<stop stop-color="#60B7FF"/>
<stop offset="1" stop-color="#0268B4"/>
</linearGradient>
<linearGradient id="paint18_linear_0_7735" x1="11.5039" y1="27.8464" x2="13.1971" y2="29.3088" gradientUnits="userSpaceOnUse">
<stop stop-color="#FFE177"/>
<stop offset="1" stop-color="#FE9738"/>
</linearGradient>
<linearGradient id="paint19_linear_0_7735" x1="16.9497" y1="27.7252" x2="19.5627" y2="30.3382" gradientUnits="userSpaceOnUse">
<stop stop-color="#FFE177"/>
<stop offset="1" stop-color="#FE9738"/>
</linearGradient>
<linearGradient id="paint20_linear_0_7735" x1="13.2478" y1="29.9355" x2="14.1124" y2="30.1614" gradientUnits="userSpaceOnUse">
<stop stop-color="#FFDCBD"/>
<stop offset="1" stop-color="#FFA9B1"/>
</linearGradient>
<linearGradient id="paint21_linear_0_7735" x1="18.2931" y1="30.0826" x2="19.503" y2="30.3986" gradientUnits="userSpaceOnUse">
<stop stop-color="#FFDCBD"/>
<stop offset="1" stop-color="#FFA9B1"/>
</linearGradient>
<linearGradient id="paint22_linear_0_7735" x1="13.8252" y1="32.9664" x2="19.092" y2="32.9664" gradientUnits="userSpaceOnUse">
<stop stop-color="#FFDCBD"/>
<stop offset="1" stop-color="#FFA9B1"/>
</linearGradient>
<linearGradient id="paint23_linear_0_7735" x1="15.4571" y1="32.116" x2="17.4585" y2="32.116" gradientUnits="userSpaceOnUse">
<stop stop-color="#FE99A0"/>
<stop offset="1" stop-color="#FD4755"/>
</linearGradient>
<linearGradient id="paint24_linear_0_7735" x1="14.9502" y1="30.0376" x2="15.8055" y2="30.0376" gradientUnits="userSpaceOnUse">
<stop stop-color="#537983"/>
<stop offset="1" stop-color="#3E5959"/>
</linearGradient>
<linearGradient id="paint25_linear_0_7735" x1="17.1112" y1="30.0376" x2="17.9666" y2="30.0376" gradientUnits="userSpaceOnUse">
<stop stop-color="#537983"/>
<stop offset="1" stop-color="#3E5959"/>
</linearGradient>
<linearGradient id="paint26_linear_0_7735" x1="16.1642" y1="29.841" x2="16.1642" y2="30.6069" gradientUnits="userSpaceOnUse">
<stop stop-color="#FFA9B1" stop-opacity="0.01"/>
<stop offset="0.9972" stop-color="#FFA78F"/>
</linearGradient>
<linearGradient id="paint27_linear_0_7735" x1="13.1548" y1="28.0943" x2="14.9561" y2="29.6699" gradientUnits="userSpaceOnUse">
<stop stop-color="#FFE177"/>
<stop offset="1" stop-color="#FE9738"/>
</linearGradient>
<linearGradient id="paint28_linear_0_7735" x1="14.2073" y1="27.1904" x2="15.8111" y2="30.3234" gradientUnits="userSpaceOnUse">
<stop stop-color="#FFE177"/>
<stop offset="1" stop-color="#FE9738"/>
</linearGradient>
<linearGradient id="paint29_linear_0_7735" x1="12.0668" y1="22.987" x2="12.0668" y2="24.0993" gradientUnits="userSpaceOnUse">
<stop stop-color="white"/>
<stop offset="1" stop-color="#EEF5F6"/>
</linearGradient>
</defs>
</svg>
