<svg width="120" height="120" viewBox="0 0 120 120" fill="none" xmlns="http://www.w3.org/2000/svg">
<g id="Group 362" clip-path="url(#clip0_0_7571)">
<g id="Rectangle 662" filter="url(#filter0_d_0_7571)">
<rect width="120" height="120" rx="10" fill="white"/>
</g>
<g id="google-adsense">
<path id="Path 91" d="M90.5241 66.7619L79.8574 90H54.3574L68.3098 60H86.1669C89.6431 60 91.9527 63.5952 90.5241 66.7619Z" fill="#437DE6"/>
<path id="Path 92" fill-rule="evenodd" clip-rule="evenodd" d="M68.8098 60H86.1669C89.6431 60 91.9527 63.5952 90.5003 66.7619L79.8574 90H54.8574L68.8098 60ZM89.8336 62.4286C89.0241 61.1667 87.6669 60.4286 86.1669 60.4286V60.4286H69.0717L55.5241 89.5952H79.5955L90.1193 66.5952C90.7384 65.2381 90.6431 63.6905 89.8336 62.4286Z" fill="#196CEA"/>
<path id="Path 93" d="M69.0713 60.4283C69.0713 60.4283 82.4522 74.9521 85.5951 76.4521L89.9522 66.9045C91.4761 63.8807 89.5237 60.3568 85.8808 60.4045L69.0713 60.4283V60.4283Z" fill="url(#paint0_linear_0_7571)"/>
<g id="Group 286">
<path id="Path 94" d="M56.881 32.5952L30 90H54.8571L69.2857 58.9762L82.7619 30H60.9524C59.2143 30 57.619 31 56.881 32.5952Z" fill="url(#paint1_linear_0_7571)"/>
<path id="Path 95" fill-rule="evenodd" clip-rule="evenodd" d="M60.9524 30H82.7619L69.2857 58.9762L54.8571 90H30L56.881 32.5952C57.619 31 59.2143 30 60.9524 30ZM68.9048 58.8095L82.0952 30.4286V30.4048H60.9524C59.381 30.4048 57.9286 31.3333 57.2619 32.7619L30.6667 89.5952H54.5952L68.9048 58.8095Z" fill="#F3AA00"/>
</g>
</g>
</g>
<defs>
<filter id="filter0_d_0_7571" x="-20" y="-20" width="180" height="180" filterUnits="userSpaceOnUse" color-interpolation-filters="sRGB">
<feFlood flood-opacity="0" result="BackgroundImageFix"/>
<feColorMatrix in="SourceAlpha" type="matrix" values="0 0 0 0 0 0 0 0 0 0 0 0 0 0 0 0 0 0 127 0" result="hardAlpha"/>
<feOffset dx="10" dy="10"/>
<feGaussianBlur stdDeviation="15"/>
<feColorMatrix type="matrix" values="0 0 0 0 0.435294 0 0 0 0 0.462745 0 0 0 0 0.541176 0 0 0 0.160784 0"/>
<feBlend mode="normal" in2="BackgroundImageFix" result="effect1_dropShadow_0_7571"/>
<feBlend mode="normal" in="SourceGraphic" in2="effect1_dropShadow_0_7571" result="shape"/>
</filter>
<linearGradient id="paint0_linear_0_7571" x1="69.0801" y1="76.4697" x2="90.4905" y2="76.4697" gradientUnits="userSpaceOnUse">
<stop stop-color="#4284F0"/>
<stop offset="1" stop-color="#4487F4"/>
</linearGradient>
<linearGradient id="paint1_linear_0_7571" x1="55.3838" y1="87.0444" x2="72.2386" y2="65.4784" gradientUnits="userSpaceOnUse">
<stop stop-color="#F5B406"/>
<stop offset="1" stop-color="#F4B913"/>
</linearGradient>
<clipPath id="clip0_0_7571">
<rect width="120" height="120" fill="white"/>
</clipPath>
</defs>
</svg>
