<svg width="120" height="120" viewBox="0 0 120 120" fill="none" xmlns="http://www.w3.org/2000/svg">
<g id="Group 361" clip-path="url(#clip0_0_7584)">
<g id="Rectangle 658" filter="url(#filter0_d_0_7584)">
<rect width="120" height="120" rx="10" fill="white"/>
</g>
<g id="google-analytics-3">
<path id="Path 96" d="M85.1842 30H74.25C71.6053 30 69.4342 32.1711 69.4342 34.8158V48.9474H53.6053C51.0395 48.9474 48.9474 51.0395 48.9474 53.6447V69.4737H34.6974C32.0921 69.4737 30 71.5658 30 74.1711V85.2237C30 87.8289 32.0921 89.9211 34.6974 90H85.2237C87.8684 90 90.0395 87.8289 90.0395 85.1842V34.8158C90 32.1711 87.8289 30 85.1842 30Z" fill="url(#paint0_linear_0_7584)"/>
<path id="Path 97" d="M85.1842 30H74.25C71.6053 30 69.4342 32.1711 69.4342 34.8158V48.9474H53.6053C51.0395 48.9474 48.9474 51.0395 48.9474 53.6447V69.4737H34.6974C32.0921 69.4737 30 71.5658 30 74.1711V85.2237C30 87.8289 32.0921 89.9211 34.6974 90H85.2237C87.8684 90 90.0395 87.8289 90.0395 85.1842V34.8158C90 32.1711 87.8289 30 85.1842 30Z" fill="url(#paint1_linear_0_7584)"/>
<g id="Group 287">
<mask id="mask0_0_7584" style="mask-type:luminance" maskUnits="userSpaceOnUse" x="30" y="30" width="60" height="60">
<path id="Path 100" d="M85.1842 30H74.3289C71.6842 30 69.5132 32.1711 69.5132 34.8158V48.9474H53.7237C51.1184 48.9474 48.9868 51.0789 48.9868 53.6842V69.4737H34.7368C32.1316 69.4737 30 71.6053 30 74.2105V85.2632C30 87.8684 32.1316 90 34.7368 90H85.1842C87.8289 90 90 87.8289 90 85.1842V34.8158C90 32.1711 87.8289 30 85.1842 30Z" fill="white"/>
</mask>
<g mask="url(#mask0_0_7584)">
<path id="Path 98" d="M85.1837 30H74.3285C71.6837 30 69.5127 32.1711 69.5127 34.8158V90H85.1837C87.8285 90 89.9995 87.8289 89.9995 85.1842V34.8158C89.9995 32.1711 87.8285 30 85.1837 30Z" fill="#F57C00"/>
<path id="Path 99" d="M48.9474 53.6839V69.4733H34.7368C32.1316 69.4733 30 71.6049 30 74.2102V85.2628C30 87.8681 32.1316 89.9997 34.7368 89.9997H69.4737V48.947H53.6842C51.0789 48.947 48.9474 51.0786 48.9474 53.6839Z" fill="#FFC107"/>
</g>
</g>
<g id="Group 288">
<mask id="mask1_0_7584" style="mask-type:luminance" maskUnits="userSpaceOnUse" x="30" y="30" width="60" height="60">
<path id="Path 102" d="M85.1842 30H74.3289C71.6842 30 69.5132 32.1711 69.5132 34.8158V48.9474H53.7237C51.1184 48.9474 48.9868 51.0789 48.9868 53.6842V69.4737H34.7368C32.1316 69.4737 30 71.6053 30 74.2105V85.2632C30 87.8684 32.1316 90 34.7368 90H85.1842C87.8289 90 90 87.8289 90 85.1842V34.8158C90 32.1711 87.8289 30 85.1842 30Z" fill="white"/>
</mask>
<g mask="url(#mask1_0_7584)">
<path id="Path 101" d="M69.4736 48.947V89.9997H85.1447C87.7894 89.9997 89.9605 87.8286 89.9605 85.1839V69.4733L69.4736 48.947Z" fill="url(#paint2_linear_0_7584)"/>
</g>
</g>
<g id="Group 290">
<g id="Group 289">
<mask id="mask2_0_7584" style="mask-type:luminance" maskUnits="userSpaceOnUse" x="30" y="30" width="60" height="60">
<path id="Path 104" d="M85.1842 30H74.3289C71.6842 30 69.5132 32.1711 69.5132 34.8158V48.9474H53.7237C51.1184 48.9474 48.9868 51.0789 48.9868 53.6842V69.4737H34.7368C32.1316 69.4737 30 71.6053 30 74.2105V85.2632C30 87.8684 32.1316 90 34.7368 90H85.1842C87.8289 90 90 87.8289 90 85.1842V34.8158C90 32.1711 87.8289 30 85.1842 30Z" fill="white"/>
</mask>
<g mask="url(#mask2_0_7584)">
<path id="Path 103" opacity="0.2" d="M53.6841 49.3418H69.4736V48.947H53.6841C51.0788 48.947 48.9473 51.0786 48.9473 53.6839V54.0786C48.9473 51.4733 51.0788 49.3418 53.6841 49.3418Z" fill="white"/>
</g>
</g>
</g>
<g id="Group 292">
<g id="Group 291">
<mask id="mask3_0_7584" style="mask-type:luminance" maskUnits="userSpaceOnUse" x="30" y="30" width="60" height="60">
<path id="Path 106" d="M85.1842 30H74.3289C71.6842 30 69.5132 32.1711 69.5132 34.8158V48.9474H53.7237C51.1184 48.9474 48.9868 51.0789 48.9868 53.6842V69.4737H34.7368C32.1316 69.4737 30 71.6053 30 74.2105V85.2632C30 87.8684 32.1316 90 34.7368 90H85.1842C87.8289 90 90 87.8289 90 85.1842V34.8158C90 32.1711 87.8289 30 85.1842 30Z" fill="white"/>
</mask>
<g mask="url(#mask3_0_7584)">
<path id="Path 105" opacity="0.2" d="M34.7368 69.8687H48.9474V69.474H34.7368C32.1316 69.474 30 71.6056 30 74.2108V74.6056C30 72.0003 32.1316 69.8687 34.7368 69.8687Z" fill="white"/>
</g>
</g>
</g>
<g id="Group 294">
<g id="Group 293">
<mask id="mask4_0_7584" style="mask-type:luminance" maskUnits="userSpaceOnUse" x="30" y="30" width="60" height="60">
<path id="Path 108" d="M85.1842 30H74.3289C71.6842 30 69.5132 32.1711 69.5132 34.8158V48.9474H53.7237C51.1184 48.9474 48.9868 51.0789 48.9868 53.6842V69.4737H34.7368C32.1316 69.4737 30 71.6053 30 74.2105V85.2632C30 87.8684 32.1316 90 34.7368 90H85.1842C87.8289 90 90 87.8289 90 85.1842V34.8158C90 32.1711 87.8289 30 85.1842 30Z" fill="white"/>
</mask>
<g mask="url(#mask4_0_7584)">
<path id="Path 107" opacity="0.2" d="M85.1837 30H74.3285C71.6837 30 69.5127 32.1711 69.5127 34.8158V35.2105C69.5127 32.5658 71.6837 30.3947 74.3285 30.3947H85.1837C87.8285 30.3947 89.9995 32.5658 89.9995 35.2105V34.8158C89.9995 32.1711 87.8285 30 85.1837 30Z" fill="white"/>
</g>
</g>
</g>
<g id="Group 296">
<g id="Group 295">
<mask id="mask5_0_7584" style="mask-type:luminance" maskUnits="userSpaceOnUse" x="30" y="30" width="60" height="60">
<path id="Path 110" d="M85.1842 30H74.3289C71.6842 30 69.5132 32.1711 69.5132 34.8158V48.9474H53.7237C51.1184 48.9474 48.9868 51.0789 48.9868 53.6842V69.4737H34.7368C32.1316 69.4737 30 71.6053 30 74.2105V85.2632C30 87.8684 32.1316 90 34.7368 90H85.1842C87.8289 90 90 87.8289 90 85.1842V34.8158C90 32.1711 87.8289 30 85.1842 30Z" fill="white"/>
</mask>
<g mask="url(#mask5_0_7584)">
<path id="Path 109" opacity="0.2" d="M85.1842 89.6048H34.7368C32.1316 89.6048 30 87.4732 30 84.868V85.2627C30 87.868 32.1316 89.9995 34.7368 89.9995H85.1447C87.7895 89.9995 89.9605 87.8285 89.9605 85.1837V84.789C90 87.4337 87.8289 89.6048 85.1842 89.6048H85.1842Z" fill="#BF360C"/>
</g>
</g>
</g>
<path id="Path 111" d="M85.1842 30H74.3289C71.6842 30 69.5132 32.1711 69.5132 34.8158V48.9474H53.7237C51.1184 48.9474 48.9868 51.0789 48.9868 53.6842V69.4737H34.7368C32.1316 69.4737 30 71.6053 30 74.2105V85.2632C30 87.8684 32.1316 90 34.7368 90H85.1842C87.8289 90 90 87.8289 90 85.1842V34.8158C90 32.1711 87.8289 30 85.1842 30Z" fill="url(#paint3_linear_0_7584)"/>
</g>
</g>
<defs>
<filter id="filter0_d_0_7584" x="-20" y="-20" width="180" height="180" filterUnits="userSpaceOnUse" color-interpolation-filters="sRGB">
<feFlood flood-opacity="0" result="BackgroundImageFix"/>
<feColorMatrix in="SourceAlpha" type="matrix" values="0 0 0 0 0 0 0 0 0 0 0 0 0 0 0 0 0 0 127 0" result="hardAlpha"/>
<feOffset dx="10" dy="10"/>
<feGaussianBlur stdDeviation="15"/>
<feColorMatrix type="matrix" values="0 0 0 0 0.435294 0 0 0 0 0.462745 0 0 0 0 0.541176 0 0 0 0.160784 0"/>
<feBlend mode="normal" in2="BackgroundImageFix" result="effect1_dropShadow_0_7584"/>
<feBlend mode="normal" in="SourceGraphic" in2="effect1_dropShadow_0_7584" result="shape"/>
</filter>
<linearGradient id="paint0_linear_0_7584" x1="30" y1="90.5211" x2="90.0395" y2="90.5211" gradientUnits="userSpaceOnUse">
<stop stop-color="white" stop-opacity="0.101961"/>
<stop offset="1" stop-color="white" stop-opacity="0.01"/>
</linearGradient>
<linearGradient id="paint1_linear_0_7584" x1="30" y1="90.5211" x2="90.0395" y2="90.5211" gradientUnits="userSpaceOnUse">
<stop stop-color="white" stop-opacity="0.101961"/>
<stop offset="1" stop-color="white" stop-opacity="0.01"/>
</linearGradient>
<linearGradient id="paint2_linear_0_7584" x1="66.6086" y1="90.5218" x2="101.014" y2="81.9535" gradientUnits="userSpaceOnUse">
<stop stop-color="#BF360C" stop-opacity="0.2"/>
<stop offset="1" stop-color="#BF360C" stop-opacity="0.0196078"/>
</linearGradient>
<linearGradient id="paint3_linear_0_7584" x1="69.5258" y1="89.7837" x2="108.339" y2="50.9708" gradientUnits="userSpaceOnUse">
<stop stop-color="white" stop-opacity="0.101961"/>
<stop offset="1" stop-color="white" stop-opacity="0.01"/>
</linearGradient>
<clipPath id="clip0_0_7584">
<rect width="120" height="120" fill="white"/>
</clipPath>
</defs>
</svg>
