<svg width="21" height="21" viewBox="0 0 21 21" fill="none" xmlns="http://www.w3.org/2000/svg">
<g id="twitter-fill" clip-path="url(#clip0_0_7424)">
<path id="Path 219" d="M18.9992 4.66206C18.3625 4.94731 17.6873 5.13465 16.9959 5.21788C17.7246 4.77646 18.27 4.08175 18.5305 3.26321C17.8466 3.67543 17.0968 3.96432 16.3154 4.12059C15.2361 2.95093 13.5151 2.66269 12.1215 3.41817C10.7279 4.17366 10.0101 5.78397 10.3724 7.34235C7.56772 7.19996 4.95461 5.85817 3.18343 3.65093C2.87343 4.19024 2.71052 4.80332 2.71139 5.42737C2.71139 6.65221 3.32687 7.73429 4.26261 8.36783C3.70885 8.35017 3.16728 8.1987 2.68304 7.92604L2.68304 7.96997C2.68304 9.6511 3.85291 11.1001 5.48035 11.434C4.96653 11.575 4.42778 11.5959 3.90483 11.495C4.36113 12.9345 5.67076 13.9208 7.16322 13.9489C5.70202 15.1112 3.84456 15.6376 2 15.4119C3.59433 16.4505 5.45029 17.0018 7.34586 17C13.7617 17 17.2703 11.6166 17.2703 6.94786C17.2703 6.79581 17.2661 6.64207 17.2595 6.49172C17.9424 5.99178 18.5318 5.37248 19 4.6629L18.9992 4.66206Z" fill="#687497"/>
</g>
<defs>
<clipPath id="clip0_0_7424">
<rect width="21" height="21" fill="white"/>
</clipPath>
</defs>
</svg>
