<svg width="30" height="36" viewBox="0 0 30 36" fill="none" xmlns="http://www.w3.org/2000/svg">
<path fill-rule="evenodd" clip-rule="evenodd" d="M21.9943 0.246094C22.2227 2.32154 21.4 4.36673 20.1976 5.87001C18.943 7.34992 16.9358 8.48186 14.9808 8.33607C14.7249 6.33902 15.7155 4.21544 16.8243 2.91983C18.0776 1.44955 20.254 0.323114 21.9943 0.246094ZM28.3941 12.2186C28.176 12.3487 24.5604 14.5061 24.6 18.9059H24.6C24.6468 24.2176 29.25 25.9753 29.305 25.9946C29.2775 26.1183 28.5842 28.5308 26.8576 30.9775C25.4158 33.1328 23.9053 35.2412 21.506 35.2784C20.3653 35.3046 19.5951 34.977 18.7925 34.6356C17.9553 34.2795 17.083 33.9085 15.7182 33.9085C14.2718 33.9085 13.3609 34.2915 12.4825 34.6609C11.7224 34.9805 10.9868 35.2899 9.94972 35.332C7.66461 35.4159 5.91879 33.0324 4.42474 30.895C1.438 26.5337 -0.887003 18.6046 2.23043 13.209C3.741 10.5628 6.49524 8.85872 9.43932 8.81333C10.7358 8.78683 11.9792 9.28633 13.0693 9.72421C13.9028 10.0591 14.6467 10.3579 15.256 10.3579C15.7911 10.3579 16.5141 10.071 17.3568 9.73665C18.6847 9.20973 20.3099 8.56488 21.9655 8.73906C23.0977 8.77206 26.3197 9.18605 28.3984 12.216L28.3941 12.2186Z" fill="white"/>
</svg>