<svg width="60" height="60" viewBox="0 0 60 60" fill="none" xmlns="http://www.w3.org/2000/svg">
<g id="icon">
<g id="Group 325">
<g id="Group 315">
<path id="Ellipse 35" d="M40.7253 49.2751C51.3706 49.2751 60.0003 40.6454 60.0003 30.0001C60.0003 19.3547 51.3706 10.725 40.7253 10.725C30.0799 10.725 21.4502 19.3547 21.4502 30.0001C21.4502 40.6454 30.0799 49.2751 40.7253 49.2751Z" fill="url(#paint0_linear_0_7789)"/>
<path id="Ellipse 36" d="M40.7252 44.9919C49.0049 44.9919 55.717 38.2798 55.717 30.0001C55.717 21.7203 49.0049 15.0083 40.7252 15.0083C32.4454 15.0083 25.7334 21.7203 25.7334 30.0001C25.7334 38.2798 32.4454 44.9919 40.7252 44.9919Z" fill="url(#paint1_linear_0_7789)"/>
<path id="Path 262" d="M59.5352 34.2199L46.9337 21.6184C46.2862 20.6455 44.5518 20.2472 43.1432 20.1032C43.0419 19.9715 42.089 19.0587 42.032 18.9886C41.8397 18.7518 41.4725 18.578 41.1046 18.578C40.4872 18.578 40.0382 18.9428 40.0382 19.3358V20.1216C37.0632 20.5426 34.425 22.2546 34.425 25.819C34.425 27.5213 35.1061 28.6874 36.0972 29.5484C36.0972 29.5484 40.0046 33.4646 40.0382 33.5013V36.1471C37.9613 35.7822 37.0071 34.1264 35.8283 34.1264C34.7618 34.1264 33.9199 35.5295 33.9199 36.4839C33.9199 37.1819 34.3366 37.8708 35.042 38.4597L45.3077 48.7253C52.3918 46.9973 57.9412 41.3554 59.5352 34.2199Z" fill="url(#paint2_linear_0_7789)"/>
<path id="Path 263" fill-rule="evenodd" clip-rule="evenodd" d="M42.0862 27.7545V23.6569C43.1156 23.7361 43.734 24.0566 44.2438 24.3209C44.6374 24.5249 44.9663 24.6954 45.3698 24.6954C46.6047 24.6954 47.1099 23.1517 47.1099 22.394C47.1099 20.4575 43.8262 20.0085 42.0862 19.9523V19.2507C42.0862 18.8577 41.5529 18.4929 41.0197 18.4929C40.4023 18.4929 39.9532 18.8577 39.9532 19.2507V20.0366C36.9783 20.4575 34.34 22.1695 34.34 25.7339C34.34 29.3262 37.3711 30.5331 39.9532 31.5154V36.062C38.841 35.8666 38.0508 35.301 37.3756 34.8177C36.79 34.3985 36.2909 34.0413 35.7433 34.0413C34.6768 34.0413 33.835 35.4445 33.835 36.3988C33.835 38.1951 36.5854 39.9351 39.9532 40.0473V40.7489C39.9532 41.1419 40.4023 41.5067 41.0197 41.5067C41.553 41.5067 42.0862 41.1419 42.0862 40.7489V39.9351C45.3698 39.4018 47.6151 37.297 47.6151 33.8168C47.6152 30.0278 44.6401 28.7087 42.0862 27.7545ZM40.2338 27.0809C39.1673 26.6319 38.4376 26.1267 38.4376 25.3128C38.4376 24.6393 38.971 23.9937 40.2338 23.7412V27.0809ZM41.8057 32.2731V36.0338C42.7597 35.8093 43.5175 35.276 43.5175 34.2658C43.5175 33.3395 42.8159 32.7501 41.8057 32.2731Z" fill="url(#paint3_linear_0_7789)"/>
</g>
<path id="Path 264" d="M32.471 16H27.4775C23.766 19.5133 21.4502 24.486 21.4502 30C21.4502 40.6453 30.08 49.2751 40.7253 49.2751C47.5181 49.2751 53.4896 45.7607 56.9226 40.4516L32.471 16Z" fill="url(#paint4_linear_0_7789)"/>
<g id="Group 324">
<g id="Group 323">
<path id="Ellipse 37" d="M19.2751 49.2751C29.9204 49.2751 38.5502 40.6454 38.5502 30.0001C38.5502 19.3547 29.9204 10.725 19.2751 10.725C8.62975 10.725 0 19.3547 0 30.0001C0 40.6454 8.62975 49.2751 19.2751 49.2751Z" fill="url(#paint5_linear_0_7789)"/>
<path id="Ellipse 38" d="M19.2748 47.7231C29.063 47.7231 36.9979 39.7882 36.9979 30.0001C36.9979 20.2119 29.063 12.277 19.2748 12.277C9.48665 12.277 1.55176 20.2119 1.55176 30.0001C1.55176 39.7882 9.48665 47.7231 19.2748 47.7231Z" fill="url(#paint6_linear_0_7789)"/>
<path id="Ellipse 39" d="M19.2753 46.0546C28.142 46.0546 35.3299 38.8668 35.3299 30C35.3299 21.1333 28.142 13.9454 19.2753 13.9454C10.4086 13.9454 3.2207 21.1333 3.2207 30C3.2207 38.8668 10.4086 46.0546 19.2753 46.0546Z" fill="url(#paint7_linear_0_7789)"/>
<path id="Path 265" d="M35.326 30.2837L19.8681 14.8258C19.6633 14.5154 19.2079 14.5154 19.0031 14.8258L16.9808 17.8899C16.7567 18.2294 16.9939 18.6794 17.3959 18.6924C17.4052 18.9496 17.6078 19.1832 17.896 19.1925C17.898 19.2473 17.9081 19.3011 17.9267 19.3518V27.6456C17.0738 28.1585 16.5029 29.0927 16.5029 30.1605C16.5029 30.4711 16.5517 30.7701 16.6411 31.0511L14.1983 33.4938L13.8354 33.1309C13.5435 32.839 13.0441 32.9889 12.9613 33.3933L12.2247 36.9899C12.1586 37.313 12.4043 37.602 12.7149 37.6116L21.0587 45.9553C28.9935 45.0782 35.1848 38.4189 35.326 30.2837V30.2837Z" fill="url(#paint8_linear_0_7789)"/>
<g id="Group 322">
<g id="Group 318">
<g id="Group 316">
<path id="Path 266" d="M19.2753 20.6545C18.4382 20.6545 17.7598 19.976 17.7598 19.139V17.2445C17.7598 16.4075 18.4384 15.729 19.2753 15.729C20.1124 15.729 20.7908 16.4076 20.7908 17.2445V19.139C20.7909 19.976 20.1124 20.6545 19.2753 20.6545Z" fill="#BCCBD3"/>
<path id="Path 267" d="M19.2753 44.2715C18.4382 44.2715 17.7598 43.5929 17.7598 42.756V40.8615C17.7598 40.0244 18.4384 39.3459 19.2753 39.3459C20.1124 39.3459 20.7908 40.0245 20.7908 40.8615V42.756C20.7909 43.593 20.1124 44.2715 19.2753 44.2715Z" fill="#BCCBD3"/>
</g>
<g id="Group 317">
<path id="Path 268" d="M28.6211 30.0005C28.6211 29.1635 29.2997 28.485 30.1366 28.485H32.0311C32.8682 28.485 33.5466 29.1636 33.5466 30.0005C33.5466 30.8376 32.868 31.5161 32.0311 31.5161H30.1366C29.2997 31.5161 28.6211 30.8376 28.6211 30.0005V30.0005Z" fill="#BCCBD3"/>
<path id="Path 269" d="M5.00391 30.0005C5.00391 29.1635 5.6825 28.485 6.51944 28.485H8.41391C9.25097 28.485 9.92944 29.1636 9.92944 30.0005C9.92944 30.8376 9.25085 31.5161 8.41391 31.5161H6.51944C5.6825 31.5161 5.00391 30.8376 5.00391 30.0005V30.0005Z" fill="#BCCBD3"/>
</g>
</g>
<g id="Group 321">
<g id="Group 319">
<path id="Path 270" d="M25.8843 23.3917C25.2925 22.7998 25.2925 21.8403 25.8843 21.2484L27.2239 19.9089C27.8158 19.317 28.7753 19.317 29.3672 19.9089C29.9591 20.5008 29.9591 21.4603 29.3672 22.0522L28.0276 23.3917C27.4357 23.9836 26.4762 23.9836 25.8843 23.3917Z" fill="#BCCBD3"/>
<path id="Path 271" d="M9.18414 40.0917C8.59226 39.4998 8.59226 38.5403 9.18414 37.9484L10.5237 36.6089C11.1156 36.0169 12.0751 36.0169 12.667 36.6089C13.2589 37.2007 13.2589 38.1603 12.667 38.7521L11.3274 40.0917C10.7357 40.6835 9.77602 40.6835 9.18414 40.0917Z" fill="#BCCBD3"/>
</g>
<g id="Group 320">
<path id="Path 272" d="M25.8843 36.6088C26.4762 36.0169 27.4357 36.0169 28.0276 36.6088L29.3672 37.9483C29.9591 38.5403 29.9591 39.4998 29.3672 40.0917C28.7753 40.6835 27.8158 40.6835 27.2239 40.0917L25.8843 38.7521C25.2925 38.1602 25.2925 37.2006 25.8843 36.6088Z" fill="#BCCBD3"/>
<path id="Path 273" d="M9.18414 19.9089C9.77602 19.317 10.7356 19.317 11.3274 19.9089L12.667 21.2484C13.2589 21.8403 13.2589 22.7998 12.667 23.3917C12.0751 23.9836 11.1156 23.9836 10.5237 23.3917L9.18414 22.0522C8.59226 21.4603 8.59226 20.5008 9.18414 19.9089Z" fill="#BCCBD3"/>
</g>
</g>
</g>
</g>
<path id="Path 274" d="M12.6752 37.4414L16.2718 36.7047C16.6763 36.6219 16.8262 36.1225 16.5343 35.8306L16.1714 35.4677L20.502 31.1371C20.6968 30.9422 20.6968 30.6263 20.502 30.4315L19.0735 29.0031C18.8787 28.8082 18.5628 28.8082 18.368 29.0031L14.0374 33.3336L13.6744 32.9707C13.3825 32.6788 12.8831 32.8287 12.8003 33.2332L12.0636 36.8298C11.9889 37.194 12.3109 37.516 12.6752 37.4414Z" fill="url(#paint9_linear_0_7789)"/>
<path id="Path 275" d="M18.8433 14.6658L16.821 17.7299C16.5936 18.0745 16.8406 18.5335 17.2534 18.5335H17.7667V29.3215C17.7667 29.5971 17.9901 29.8205 18.2657 29.8205H20.2858C20.5613 29.8205 20.7847 29.5971 20.7847 29.3215V18.5335H21.298C21.7108 18.5335 21.9579 18.0743 21.7305 17.7299L19.7083 14.6658C19.5036 14.3554 19.0482 14.3554 18.8433 14.6658Z" fill="url(#paint10_linear_0_7789)"/>
<path id="Ellipse 40" d="M19.2746 32.9329C20.8944 32.9329 22.2074 31.6198 22.2074 30.0001C22.2074 28.3803 20.8944 27.0673 19.2746 27.0673C17.6549 27.0673 16.3418 28.3803 16.3418 30.0001C16.3418 31.6198 17.6549 32.9329 19.2746 32.9329Z" fill="url(#paint11_linear_0_7789)"/>
</g>
</g>
<g id="Group 326">
<path id="Path 276" d="M41.8458 7.3714L38.0741 0.617977C37.5677 -0.25873 36.197 -0.180965 35.7233 0.713859L34.9939 2.09163C31.0773 0.494565 26.5075 0.519036 22.6138 2.55692C21.0857 3.3568 19.7589 4.3868 18.6523 5.58128C17.3607 6.97528 18.0171 9.24657 19.8456 9.76457C20.7744 10.0278 21.7666 9.74034 22.4251 9.03434C23.1526 8.25446 24.0252 7.58328 25.0302 7.06422C27.4609 5.8088 30.2088 5.70763 32.6243 6.56798L31.877 7.97951C31.4032 8.87434 32.0998 9.94069 33.1096 9.86646L40.8249 9.29998C41.7723 9.23034 42.3209 8.1941 41.8458 7.37139V7.3714Z" fill="url(#paint12_linear_0_7789)"/>
<path id="Path 277" d="M18.1526 52.6288L21.9244 59.3822C22.4308 60.2589 23.8015 60.1811 24.2751 59.2863L25.0045 57.9085C28.9211 59.5056 33.491 59.4811 37.3847 57.4432C38.9128 56.6433 40.2396 55.6133 41.3462 54.4189C42.6377 53.0249 41.9814 50.7536 40.1529 50.2356C39.2241 49.9724 38.2318 50.2598 37.5734 50.9658C36.8458 51.7457 35.9733 52.4168 34.9683 52.9359C32.5376 54.1913 29.7897 54.2925 27.3742 53.4322L28.1215 52.0206C28.5952 51.1258 27.8986 50.0595 26.8889 50.1337L19.1736 50.7001C18.2262 50.7698 17.6776 51.806 18.1526 52.6288Z" fill="url(#paint13_linear_0_7789)"/>
</g>
</g>
<defs>
<linearGradient id="paint0_linear_0_7789" x1="20.0803" y1="31.1752" x2="41.9004" y2="52.9953" gradientUnits="userSpaceOnUse">
<stop stop-color="#FFE177"/>
<stop offset="1" stop-color="#FE9738"/>
</linearGradient>
<linearGradient id="paint1_linear_0_7789" x1="-247.135" y1="-625.322" x2="-230.165" y2="-608.351" gradientUnits="userSpaceOnUse">
<stop stop-color="#FFE177"/>
<stop offset="1" stop-color="#FE9738"/>
</linearGradient>
<linearGradient id="paint2_linear_0_7789" x1="56.5851" y1="27.8819" x2="38.2504" y2="21.5927" gradientUnits="userSpaceOnUse">
<stop stop-color="#FE9738" stop-opacity="0.01"/>
<stop offset="1" stop-color="#F46700"/>
</linearGradient>
<linearGradient id="paint3_linear_0_7789" x1="34.2373" y1="33.3913" x2="44.971" y2="37.2397" gradientUnits="userSpaceOnUse">
<stop stop-color="#FE9738"/>
<stop offset="1" stop-color="#F46700"/>
</linearGradient>
<linearGradient id="paint4_linear_0_7789" x1="56.2465" y1="27.5385" x2="33.6082" y2="19.0215" gradientUnits="userSpaceOnUse">
<stop stop-color="#FE9738" stop-opacity="0.01"/>
<stop offset="1" stop-color="#F46700"/>
</linearGradient>
<linearGradient id="paint5_linear_0_7789" x1="2.09018" y1="30.6873" x2="19.9623" y2="48.5594" gradientUnits="userSpaceOnUse">
<stop stop-color="#537983"/>
<stop offset="1" stop-color="#3E5959"/>
</linearGradient>
<linearGradient id="paint6_linear_0_7789" x1="-199.86" y1="-436.192" x2="-183.427" y2="-419.759" gradientUnits="userSpaceOnUse">
<stop stop-color="#537983"/>
<stop offset="1" stop-color="#3E5959"/>
</linearGradient>
<linearGradient id="paint7_linear_0_7789" x1="7.166" y1="28.9684" x2="18.2437" y2="40.0461" gradientUnits="userSpaceOnUse">
<stop stop-color="white"/>
<stop offset="1" stop-color="#EEF5F6"/>
</linearGradient>
<linearGradient id="paint8_linear_0_7789" x1="29.29" y1="16.6329" x2="3.88006" y2="8.11462" gradientUnits="userSpaceOnUse">
<stop stop-color="#3E5959" stop-opacity="0.01"/>
<stop offset="0.8153" stop-color="#394C4C" stop-opacity="0.815686"/>
<stop offset="1" stop-color="#384949"/>
</linearGradient>
<linearGradient id="paint9_linear_0_7789" x1="12.5575" y1="34.207" x2="16.6946" y2="38.3441" gradientUnits="userSpaceOnUse">
<stop stop-color="#FFE177"/>
<stop offset="1" stop-color="#FE9738"/>
</linearGradient>
<linearGradient id="paint10_linear_0_7789" x1="16.7345" y1="29.8204" x2="21.8172" y2="29.8204" gradientUnits="userSpaceOnUse">
<stop stop-color="#FFE177"/>
<stop offset="1" stop-color="#FE9738"/>
</linearGradient>
<linearGradient id="paint11_linear_0_7789" x1="16.6599" y1="30.1047" x2="19.3792" y2="32.824" gradientUnits="userSpaceOnUse">
<stop stop-color="#FE99A0"/>
<stop offset="1" stop-color="#FD4755"/>
</linearGradient>
<linearGradient id="paint12_linear_0_7789" x1="17.7936" y1="-1.21667" x2="16.782" y2="11.988" gradientUnits="userSpaceOnUse">
<stop stop-color="#51E998"/>
<stop offset="1" stop-color="#2BD67B"/>
</linearGradient>
<linearGradient id="paint13_linear_0_7789" x1="15.4308" y1="49.84" x2="15.4308" y2="61.8021" gradientUnits="userSpaceOnUse">
<stop stop-color="#4BE894"/>
<stop offset="1" stop-color="#2BD67B"/>
</linearGradient>
</defs>
</svg>
