<svg width="15" height="15" viewBox="0 0 15 15" fill="none" xmlns="http://www.w3.org/2000/svg">
<g id="search-line">
<path id="Path 1163" fill-rule="evenodd" clip-rule="evenodd" d="M15 13.9552L11.8374 10.7933C12.7805 9.61682 13.2935 8.15349 13.2913 6.64566C13.2913 2.97726 10.3141 0 6.64566 0C2.97726 0 0 2.97726 0 6.64566C0 10.3141 2.97726 13.2913 6.64566 13.2913C8.15349 13.2935 9.61682 12.7805 10.7933 11.8374L13.9552 15L15 13.9552ZM11.8145 6.64566C11.8166 7.98988 11.2933 9.28169 10.3562 10.2454L10.2454 10.3562C9.28169 11.2933 7.98988 11.8166 6.64566 11.8145C3.78951 11.8145 1.47681 9.50108 1.47681 6.64566C1.47681 3.78951 3.78951 1.47681 6.64566 1.47681C9.50108 1.47681 11.8145 3.7895 11.8145 6.64566Z" fill="#9EA1AB"/>
</g>
</svg>
