<svg width="120" height="120" viewBox="0 0 120 120" fill="none" xmlns="http://www.w3.org/2000/svg">
<g id="Group 365" clip-path="url(#clip0_0_7551)">
<g id="Rectangle 659" filter="url(#filter0_d_0_7551)">
<rect width="120" height="120" rx="10" fill="white"/>
</g>
<g id="dribbble-icon-1">
<path id="Path 89" d="M60.0348 31.995C75.5217 31.995 88.052 44.5253 88.052 59.9887C88.052 75.4522 75.5217 88.0059 60.0348 88.0059C44.5479 88.0059 32.0176 75.4756 32.0176 60.0122C32.0176 44.5488 44.5479 31.995 60.0348 31.995Z" fill="#E74D89"/>
<path id="Path 90" fill-rule="evenodd" clip-rule="evenodd" d="M60.0352 90C43.4689 90 30 76.5546 30 60.0117C30 43.4454 43.4689 30 60.0352 30C76.6015 30 90.0704 43.4454 90.0704 59.9883C90.0704 76.5311 76.6015 90 60.0352 90ZM85.3539 64.0946C84.4857 63.8131 77.4228 61.7247 69.3743 62.9918C72.7298 72.1901 74.0907 79.6989 74.3488 81.2476C80.1212 77.3758 84.2276 71.228 85.3539 64.0946ZM64.5874 64.1885C68.1776 73.5276 69.6793 81.3649 70.0547 83.6175C66.9808 84.9316 63.5784 85.659 60.0352 85.6355C54.0986 85.6355 48.6312 83.6175 44.2902 80.2386C44.7595 79.3 49.9452 69.2804 64.4231 64.2354C64.4701 64.2354 64.5405 64.212 64.5874 64.1885ZM40.9816 77.1646C41.5682 76.1791 48.6077 64.5405 61.842 60.2464C62.1112 60.1502 62.3962 60.0698 62.6712 59.9923L62.6713 59.9923C62.7317 59.9752 62.7918 59.9583 62.851 59.9413C62.2174 58.4865 61.5135 57.0317 60.7626 55.6003C47.9507 59.4251 35.5143 59.2608 34.388 59.2374C34.388 59.3664 34.3821 59.4955 34.3762 59.6246C34.3704 59.7536 34.3645 59.8827 34.3645 60.0117C34.388 66.6054 36.8752 72.6124 40.9816 77.1646ZM58.6508 51.6582C46.6367 54.8494 36.0774 54.8025 34.9276 54.779C36.5937 46.8479 41.9437 40.2307 49.1474 36.8518L49.2257 36.9607C50.1094 38.1889 54.5446 44.3533 58.6508 51.6582ZM54.0282 35.1154C54.7321 36.054 59.4016 42.3895 63.6019 50.1095C72.7298 46.6836 76.578 41.5213 77.0473 40.8643C72.5186 36.8518 66.5585 34.4114 60.0352 34.4114C57.9703 34.4114 55.9523 34.6695 54.0282 35.1154ZM65.5729 53.9343C75.0528 50.0626 79.3469 44.5483 79.8866 43.8209C83.4767 48.1854 85.6355 53.7466 85.7059 59.7771C85.6847 59.773 85.6587 59.7679 85.6281 59.7618C84.4362 59.5275 76.176 57.9035 67.849 58.9558C67.6613 58.5334 67.4736 58.0876 67.2859 57.6418C66.7462 56.3981 66.1596 55.1545 65.5729 53.9343Z" fill="#B2215A"/>
</g>
</g>
<defs>
<filter id="filter0_d_0_7551" x="-20" y="-20" width="180" height="180" filterUnits="userSpaceOnUse" color-interpolation-filters="sRGB">
<feFlood flood-opacity="0" result="BackgroundImageFix"/>
<feColorMatrix in="SourceAlpha" type="matrix" values="0 0 0 0 0 0 0 0 0 0 0 0 0 0 0 0 0 0 127 0" result="hardAlpha"/>
<feOffset dx="10" dy="10"/>
<feGaussianBlur stdDeviation="15"/>
<feColorMatrix type="matrix" values="0 0 0 0 0.435294 0 0 0 0 0.462745 0 0 0 0 0.541176 0 0 0 0.160784 0"/>
<feBlend mode="normal" in2="BackgroundImageFix" result="effect1_dropShadow_0_7551"/>
<feBlend mode="normal" in="SourceGraphic" in2="effect1_dropShadow_0_7551" result="shape"/>
</filter>
<clipPath id="clip0_0_7551">
<rect width="120" height="120" fill="white"/>
</clipPath>
</defs>
</svg>
