<svg width="120" height="120" viewBox="0 0 120 120" fill="none" xmlns="http://www.w3.org/2000/svg">
<g id="Group 366" clip-path="url(#clip0_0_7545)">
<g id="Rectangle 657" filter="url(#filter0_d_0_7545)">
<rect width="120" height="120" rx="10" fill="white"/>
</g>
<path id="Path 116" d="M84.5609 30H35.4391C32.4352 30 30 32.4352 30 35.4391V84.5609C30 87.5648 32.4352 90 35.4391 90H84.5609C87.5648 90 90 87.5648 90 84.5609V35.4391C90 32.4352 87.5648 30 84.5609 30Z" fill="#DC395F"/>
<path id="Path 117" fill-rule="evenodd" clip-rule="evenodd" d="M52.7744 46.6105C52.7744 48.6595 51.1035 50.2227 49.109 50.2227C47.1145 50.2227 45.4441 48.6592 45.4441 46.6105C45.4441 44.563 47.1145 43 49.109 43C51.1035 43 52.7744 44.563 52.7744 46.6105ZM41.1857 72.2765C41.1857 71.4693 41.2938 70.4798 41.5091 69.5634H41.5094L44.2579 58.3335H40L41.2938 53.5607H51.535L47.492 69.5976C47.2225 70.6225 47.1147 71.4726 47.1147 72.0644C47.1147 73.09 47.6195 73.3898 48.4089 73.5679C48.8896 73.6755 52.72 73.6002 54.8052 68.9648L57.4607 58.3335H53.1484L54.4422 53.5607H63.6588L62.4733 58.9794C64.09 55.9605 67.3244 53.0919 70.5044 53.0919C73.9 53.0919 76.7031 55.5112 76.7031 60.1466C76.7031 61.3321 76.5412 62.6223 76.1102 64.0773L74.3849 70.2737C74.2237 70.922 74.1154 71.4604 74.1154 71.9455C74.1154 73.023 74.5466 73.5616 75.3552 73.5616C76.1638 73.5616 77.1881 72.9674 78.374 69.6812L80.7454 70.5967C79.3438 75.502 76.8107 77.5492 73.6305 77.5492C69.9112 77.5492 68.133 75.3407 68.133 72.3212C68.133 71.4595 68.2403 70.5426 68.5098 69.6262L70.2887 63.2659C70.5044 62.5649 70.5583 61.9187 70.5583 61.3255C70.5583 59.278 69.3187 58.0377 67.3244 58.0377C64.7908 58.0377 63.1199 59.8562 62.2574 63.3597L58.8074 77.197H52.7711L53.8546 72.8486C52.0802 75.7635 49.6157 77.5687 46.5759 77.5687C42.9105 77.5687 41.1857 75.4572 41.1857 72.2765Z" fill="white"/>
</g>
<defs>
<filter id="filter0_d_0_7545" x="-20" y="-20" width="180" height="180" filterUnits="userSpaceOnUse" color-interpolation-filters="sRGB">
<feFlood flood-opacity="0" result="BackgroundImageFix"/>
<feColorMatrix in="SourceAlpha" type="matrix" values="0 0 0 0 0 0 0 0 0 0 0 0 0 0 0 0 0 0 127 0" result="hardAlpha"/>
<feOffset dx="10" dy="10"/>
<feGaussianBlur stdDeviation="15"/>
<feColorMatrix type="matrix" values="0 0 0 0 0.435294 0 0 0 0 0.462745 0 0 0 0 0.541176 0 0 0 0.160784 0"/>
<feBlend mode="normal" in2="BackgroundImageFix" result="effect1_dropShadow_0_7545"/>
<feBlend mode="normal" in="SourceGraphic" in2="effect1_dropShadow_0_7545" result="shape"/>
</filter>
<clipPath id="clip0_0_7545">
<rect width="120" height="120" fill="white"/>
</clipPath>
</defs>
</svg>
