<svg width="120" height="120" viewBox="0 0 120 120" fill="none" xmlns="http://www.w3.org/2000/svg">
<g id="Group 364" clip-path="url(#clip0_0_7620)">
<g id="Rectangle 660" filter="url(#filter0_d_0_7620)">
<rect width="120" height="120" rx="10" fill="white"/>
</g>
<g id="slack-1">
<path id="Path 130" d="M68.9105 33.6936C67.9985 30.8861 64.983 29.3497 62.176 30.2622C59.3685 31.1742 57.8322 34.1897 58.7446 36.9967L72.5646 79.5173C73.5137 82.1401 76.3467 83.6139 79.0663 82.8313C81.9031 82.0147 83.6322 79.0018 82.727 76.2159L68.9105 33.6936Z" fill="#DFA22F"/>
<path id="Path 131" d="M47.496 40.6516C46.5836 37.8443 43.5683 36.308 40.7613 37.22C37.9535 38.1322 36.417 41.1475 37.3297 43.955L51.1499 86.4758C52.0987 89.0984 54.932 90.5723 57.6516 89.789C60.4882 88.9729 62.2172 85.96 61.312 83.1736L47.496 40.6516Z" fill="#3CB187"/>
<path id="Path 132" d="M86.3054 68.9102C89.113 67.9982 90.6488 64.9832 89.7368 62.1754C88.8248 59.3684 85.8093 57.8318 83.0023 58.7441L40.4817 72.5645C37.8589 73.5131 36.3852 76.3462 37.1678 79.0658C37.9843 81.9024 40.9972 83.6316 43.7832 82.7264L86.3054 68.9104" fill="#CE1E5B"/>
<path id="Path 133" d="M49.3441 80.9198L59.5068 77.6178L56.2043 67.454L46.041 70.7574L49.3441 80.92" fill="#392538"/>
<path id="Path 134" d="M70.7584 73.9607C74.6006 72.7127 78.1717 71.5522 80.9213 70.6587L77.6184 60.493L67.4551 63.7964L70.7585 73.9607" fill="#BB242A"/>
<path id="Path 135" d="M79.3475 47.4954C82.1548 46.5834 83.6911 43.5681 82.7791 40.7604C81.8671 37.9533 78.8516 36.417 76.0441 37.329L33.5233 51.1497C30.9007 52.0978 29.4268 54.9311 30.2101 57.6507C31.0262 60.487 34.0391 62.2163 36.8255 61.3111L79.3475 47.4951" fill="#72C5CD"/>
<path id="Path 136" d="M42.3844 59.5052C45.1521 58.6059 48.7204 57.4463 52.5487 56.2028C51.3007 52.3602 50.1402 48.7891 49.2467 46.039L39.0811 49.3428L42.3844 59.5052Z" fill="#248C73"/>
<path id="Path 137" d="M63.7985 52.5482L73.9632 49.2453C72.8678 45.8577 71.7688 42.4655 70.6625 39.077L60.4951 42.3835L63.7985 52.5482Z" fill="#62803A"/>
</g>
</g>
<defs>
<filter id="filter0_d_0_7620" x="-20" y="-20" width="180" height="180" filterUnits="userSpaceOnUse" color-interpolation-filters="sRGB">
<feFlood flood-opacity="0" result="BackgroundImageFix"/>
<feColorMatrix in="SourceAlpha" type="matrix" values="0 0 0 0 0 0 0 0 0 0 0 0 0 0 0 0 0 0 127 0" result="hardAlpha"/>
<feOffset dx="10" dy="10"/>
<feGaussianBlur stdDeviation="15"/>
<feColorMatrix type="matrix" values="0 0 0 0 0.435294 0 0 0 0 0.462745 0 0 0 0 0.541176 0 0 0 0.160784 0"/>
<feBlend mode="normal" in2="BackgroundImageFix" result="effect1_dropShadow_0_7620"/>
<feBlend mode="normal" in="SourceGraphic" in2="effect1_dropShadow_0_7620" result="shape"/>
</filter>
<clipPath id="clip0_0_7620">
<rect width="120" height="120" fill="white"/>
</clipPath>
</defs>
</svg>
