<svg width="50" height="50" viewBox="0 0 50 50" fill="none" xmlns="http://www.w3.org/2000/svg">
<g id="icon">
<path id="Path 292" fill-rule="evenodd" clip-rule="evenodd" d="M26.6174 1.80582C26.9027 1.82573 27.1657 1.70641 27.3396 1.50572C27.4594 1.36748 27.537 1.19062 27.5508 0.994144C27.5844 0.512371 27.221 0.0944232 26.7391 0.0607952C25.538 -0.0230298 24.3199 -0.0201866 23.1186 0.0694228C22.6368 0.105306 22.2754 0.524921 22.3115 1.0066C22.3473 1.48827 22.767 1.84975 23.2486 1.81377C24.3664 1.73053 25.4997 1.72778 26.6174 1.80582ZM34.7332 3.88194C35.0951 4.0488 35.5119 3.94782 35.7604 3.66115C35.8132 3.60026 35.8584 3.53095 35.8938 3.45428C36.0961 3.01565 35.9046 2.49603 35.4661 2.29367C34.3741 1.78994 33.2342 1.3617 32.0779 1.0211C31.6146 0.884729 31.1284 1.14905 30.9918 1.61288C30.8552 2.07612 31.1201 2.5625 31.5836 2.69898C32.6586 3.01565 33.7182 3.41359 34.7332 3.88194ZM48.383 18.9915C48.5492 18.9424 48.6899 18.8483 48.7956 18.7263C48.9844 18.5086 49.0617 18.2019 48.974 17.9049C48.6323 16.7481 48.2029 15.6071 47.6977 14.5138C47.495 14.0752 46.9753 13.8841 46.5369 14.0866C46.0982 14.2894 45.9072 14.809 46.1097 15.2474C46.5794 16.264 46.9787 17.3248 47.2964 18.4005C47.4332 18.8637 47.9196 19.1284 48.383 18.9915ZM48.9964 27.673C49.283 27.6941 49.5473 27.5746 49.722 27.3731C49.841 27.2358 49.9186 27.0604 49.9329 26.8649C50.0214 25.6637 50.0234 24.4457 49.9386 23.2445C49.9046 22.7627 49.4864 22.3996 49.0045 22.4337C48.5227 22.4676 48.1598 22.886 48.1938 23.3678C48.2726 24.4853 48.2708 25.6188 48.1884 26.7364C48.1529 27.2181 48.5146 27.6374 48.9964 27.673ZM46.5035 36.0061C46.8657 36.1749 47.2843 36.0744 47.5337 35.7868C47.5858 35.7267 47.6305 35.6585 47.6658 35.5829C48.1738 34.4929 48.6065 33.3547 48.9518 32.1999C49.0901 31.7371 48.8271 31.2497 48.3643 31.1113C47.9013 30.9729 47.4141 31.2362 47.2758 31.6988C46.9549 32.7725 46.5527 33.8307 46.0804 34.8438C45.8762 35.2817 46.0657 35.802 46.5035 36.0061ZM42.8492 42.5253C43.2116 42.1554 43.5661 41.771 43.9027 41.3828C44.2292 41.0061 44.5479 40.6155 44.8502 40.2218C45.1442 39.8385 45.072 39.2895 44.6888 38.9955C44.3055 38.7015 43.7565 38.7721 43.4625 39.1568C42.8911 39.901 42.2646 40.6226 41.5999 41.3008C41.4758 41.4275 41.3504 41.5525 41.2239 41.6759C40.8766 42.0125 40.8715 42.567 41.2087 42.9127C41.5461 43.2585 42.0998 43.2653 42.4455 42.9279C42.5811 42.7955 42.7156 42.6614 42.8492 42.5253ZM38.3755 46.1049C38.3194 46.1697 38.2526 46.2273 38.176 46.2749C37.1524 46.911 36.0724 47.4773 34.9662 47.9581C34.5231 48.1506 34.0079 47.9476 33.8154 47.5045C33.6228 47.0616 33.8259 46.5466 34.2689 46.3538C35.2973 45.9069 36.3013 45.3804 37.2528 44.7891C37.6631 44.5342 38.2023 44.6601 38.4573 45.0703C38.6646 45.404 38.62 45.8229 38.3755 46.1049ZM30.276 49.2809C30.1525 49.4235 29.9821 49.5273 29.7825 49.566C28.6011 49.7957 27.3914 49.9414 26.1872 49.999C25.7047 50.022 25.2949 49.6497 25.2718 49.1672C25.2488 48.6847 25.6209 48.2747 26.1037 48.2518C27.224 48.1982 28.3494 48.0627 29.4485 47.8489C29.9228 47.7568 30.3818 48.0664 30.474 48.5405C30.5275 48.8152 30.4461 49.0848 30.276 49.2809ZM21.5806 49.3825C21.387 49.6057 21.085 49.7256 20.7725 49.6724C19.5842 49.4704 18.4014 49.1799 17.2572 48.8091C16.7976 48.6602 16.5458 48.167 16.6948 47.7075C16.8435 47.2477 17.3369 46.9962 17.7964 47.1451C18.8606 47.4899 19.9605 47.7601 21.0657 47.9481C21.5419 48.0291 21.8623 48.4807 21.7813 48.9569C21.7535 49.1204 21.6819 49.2656 21.5806 49.3825ZM12.3079 46.5828C12.6772 46.8002 13.1409 46.7155 13.4119 46.4029C13.4464 46.3631 13.4778 46.3198 13.5051 46.2727C13.7502 45.8565 13.6115 45.3204 13.1952 45.0753C12.232 44.5081 11.3001 43.8638 10.4257 43.1602C10.0493 42.8575 9.50104 42.9182 9.19594 43.2935C8.89319 43.6699 8.95289 44.2205 9.32917 44.5232C10.2695 45.2798 11.2717 45.9726 12.3079 46.5828ZM6.83433 40.7134C6.8006 40.7523 6.76306 40.7887 6.72168 40.8222C6.3456 41.1253 5.795 41.0662 5.49186 40.6901C4.73469 39.7509 4.04095 38.7493 3.42976 37.7132C3.18437 37.2972 3.32241 36.7609 3.73879 36.5155C4.15478 36.27 4.69106 36.4085 4.93646 36.8245C5.5047 37.7877 6.14971 38.7189 6.85374 39.5922C7.12335 39.927 7.1063 40.3997 6.83433 40.7134ZM2.69122 33.0676C2.59053 33.1838 2.45788 33.2749 2.30112 33.3259C1.8417 33.4751 1.34836 33.2237 1.19904 32.7643C0.827072 31.6197 0.535499 30.4363 0.332358 29.2474C0.250984 28.7711 0.57099 28.3193 1.04717 28.2379C1.52326 28.1566 1.97523 28.4766 2.0565 28.9527C2.24553 30.0587 2.51671 31.1593 2.8626 32.2238C2.96093 32.5262 2.88544 32.8436 2.69122 33.0676ZM1.53581 24.4458C1.3663 24.6413 1.11217 24.7601 0.833543 24.747C0.351084 24.7243 -0.0216677 24.3148 0.000979707 23.8324C0.0573532 22.6289 0.202062 21.4197 0.430693 20.238C0.522361 19.7639 0.981388 19.4538 1.45551 19.5454C1.92984 19.6373 2.23984 20.096 2.14807 20.5704C1.93533 21.6697 1.80081 22.7948 1.74817 23.9144C1.73866 24.1183 1.65993 24.3026 1.53581 24.4458ZM18.2853 2.73074C18.4502 2.68133 18.5896 2.5876 18.6946 2.46652C18.8842 2.24779 18.9613 1.93965 18.872 1.6419C18.7334 1.17925 18.2459 0.916496 17.7831 1.05522C16.6273 1.4016 15.488 1.83553 14.3969 2.34515C13.9596 2.54976 13.7702 3.06996 13.9745 3.50772C14.179 3.94537 14.6995 4.13449 15.1371 3.93008C16.1513 3.45644 17.2106 3.05281 18.2853 2.73074ZM3.49692 15.977C3.25339 16.2579 2.8472 16.3619 2.48818 16.2062C2.04503 16.0141 1.8415 15.499 2.03376 15.0559C2.51308 13.9502 3.07809 12.8705 3.7131 11.8468C3.96722 11.4367 4.50674 11.3098 4.91734 11.5644C5.32783 11.819 5.45421 12.3582 5.19969 12.7687C4.60949 13.7203 4.08419 14.7239 3.63859 15.7516C3.60202 15.8358 3.55398 15.9113 3.49692 15.977ZM10.8252 6.55237C10.8728 6.51571 10.9156 6.47522 10.9535 6.43149C11.2202 6.12384 11.2429 5.66099 10.9852 5.32579C10.6907 4.94303 10.1415 4.87137 9.75859 5.16588C8.83377 5.87727 7.94768 6.66346 7.12267 7.50504L7.0558 7.57367C6.72109 7.91897 6.72697 8.47378 7.07326 8.81045C7.41954 9.14712 7.97327 9.13948 8.30994 8.793L8.37435 8.72702C9.13996 7.94603 9.96458 7.21425 10.8252 6.55237Z" fill="url(#paint0_linear_0_7854)"/>
<g id="Group 334">
<path id="Path 293" d="M45.058 25.0007C45.058 36.0783 36.0778 45.0585 25.0002 45.0585C13.9926 45.0585 5.05611 36.1916 4.94346 25.2107C4.94278 25.1408 4.94238 25.0708 4.94238 25.0007C4.94238 19.7899 8.14479 16.1393 11.4025 12.573C14.0064 9.72248 16.2067 6.53008 20.0684 5.55379C21.6462 5.15486 23.2985 4.94299 25.0003 4.94299C27.2231 4.94299 29.3613 5.30457 31.3596 5.97203C32.6147 6.39125 33.4741 7.36784 34.6049 8.01471C35.4067 8.47335 36.5142 8.54913 37.2417 9.11042C41.9957 12.7781 45.058 18.5317 45.058 25.0007Z" fill="url(#paint1_linear_0_7854)"/>
<path id="Path 294" d="M27.9936 44.8362C34.3502 43.8849 39.7312 39.9514 42.6674 34.5047L40.1036 31.9409C39.5675 31.4048 39.2663 30.6778 39.2663 29.9196C39.2663 28.3409 37.9865 27.061 36.4077 27.061H32.6582C31.5418 27.061 30.6369 27.9661 30.6369 29.0823C30.6369 30.1987 29.7319 31.1037 28.6156 31.1037H28.4144C26.1425 31.1037 24.3008 32.9453 24.3008 35.2173C24.3008 36.8892 24.9649 38.4926 26.1472 39.6749C27.3295 40.8571 27.9936 42.4605 27.9936 44.1325V44.8362Z" fill="url(#paint2_linear_0_7854)"/>
<path id="Ellipse 41" d="M27.5655 30.1318C28.9824 30.1318 30.1311 28.9832 30.1311 27.5663C30.1311 26.1494 28.9824 25.0007 27.5655 25.0007C26.1486 25.0007 25 26.1494 25 27.5663C25 28.9832 26.1486 30.1318 27.5655 30.1318Z" fill="url(#paint3_linear_0_7854)"/>
<path id="Path 295" d="M37.7286 9.49987C35.8622 7.96553 33.7141 6.76168 31.3733 5.97775C30.5146 5.6902 29.626 6.32697 29.626 7.23247C29.626 7.58346 29.7654 7.92004 30.0136 8.16827L30.7834 8.93809C31.461 9.61565 31.8417 10.5347 31.8417 11.4928C31.8417 12.4511 32.2224 13.37 32.9 14.0476L34.1429 15.2905C34.7228 15.8705 35.5093 16.1963 36.3294 16.1963C38.0372 16.1963 39.4216 14.8118 39.4216 13.104C39.4215 11.7108 38.805 10.3848 37.7286 9.49987V9.49987Z" fill="url(#paint4_linear_0_7854)"/>
<g id="Group 333">
<path id="Ellipse 42" d="M11.5113 27.9552C12.2197 27.9552 12.794 27.3809 12.794 26.6724C12.794 25.964 12.2197 25.3896 11.5113 25.3896C10.8028 25.3896 10.2285 25.964 10.2285 26.6724C10.2285 27.3809 10.8028 27.9552 11.5113 27.9552Z" fill="url(#paint5_linear_0_7854)"/>
<path id="Path 296" d="M18.8779 11.9205C19.637 11.1614 20.0635 10.1318 20.0635 9.05825V5.55603C11.3732 7.75568 4.94238 15.6269 4.94238 25.001C4.94238 25.0171 4.94238 25.0333 4.94248 25.0495C4.94709 26.9656 7.27929 27.9119 8.63411 26.557L8.97363 26.2175C9.37912 25.812 9.60697 25.2619 9.60697 24.6884V22.0873C9.60697 21.5138 9.83482 20.9638 10.2403 20.5582L10.9556 19.8429C11.9588 18.8398 12.5223 17.4792 12.5223 16.0605C12.5223 15.5238 12.9574 15.0887 13.4941 15.0887C14.0308 15.0887 14.4659 15.5238 14.4659 16.0605V16.3591C14.4659 18.5821 13.5827 20.7142 12.0107 22.2862C11.6911 22.6058 11.5116 23.0393 11.5116 23.4912C11.5116 24.4324 12.2746 25.1954 13.2158 25.1954C14.2651 25.1954 15.2714 24.7785 16.0134 24.0365L18.3696 21.6803C19.2728 20.7771 19.2728 19.3126 18.3696 18.4094C17.9358 17.9756 17.6921 17.3873 17.6921 16.774V14.783C17.6923 13.7093 18.1188 12.6797 18.8779 11.9205Z" fill="url(#paint6_linear_0_7854)"/>
</g>
<path id="Path 297" d="M5.00879 26.6329C5.83978 36.9468 14.4723 45.0581 25.0002 45.0581C35.5281 45.0581 44.1605 36.9468 44.9915 26.6329H5.00879Z" fill="url(#paint7_linear_0_7854)"/>
</g>
<path id="Ellipse 43" d="M6.45766 48.3819C9.13044 48.3819 11.2972 46.2152 11.2972 43.5424C11.2972 40.8696 9.13044 38.7029 6.45766 38.7029C3.78488 38.7029 1.61816 40.8696 1.61816 43.5424C1.61816 46.2152 3.78488 48.3819 6.45766 48.3819Z" fill="url(#paint8_linear_0_7854)"/>
<path id="Ellipse 44" d="M43.5416 11.2982C46.2144 11.2982 48.3811 9.13153 48.3811 6.45876C48.3811 3.78598 46.2144 1.61926 43.5416 1.61926C40.8689 1.61926 38.7021 3.78598 38.7021 6.45876C38.7021 9.13153 40.8689 11.2982 43.5416 11.2982Z" fill="url(#paint9_linear_0_7854)"/>
<path id="Path 298" d="M8.97213 37.0611C12.6327 41.9179 18.4491 45.0584 24.9995 45.0584C26.5831 45.0584 28.1235 44.8741 29.6013 44.5272L17.5954 32.5212C15.5369 30.4627 12.8003 29.318 9.88979 29.298C9.24585 29.2936 8.72027 29.812 8.71585 30.456C8.71261 30.9282 8.99125 31.336 9.3937 31.522L10.908 33.1167C10.5751 33.0666 10.2368 33.0383 9.8946 33.0345C9.25066 33.0275 8.723 33.5438 8.71595 34.1877C8.71232 34.5143 8.8434 34.8109 9.05742 35.025L10.7655 36.733C10.7721 36.7396 10.7794 36.7454 10.7862 36.7519C10.5043 36.6749 10.2117 36.6312 9.91342 36.623C9.5337 36.6127 9.19262 36.786 8.97213 37.0611V37.0611Z" fill="url(#paint10_linear_0_7854)"/>
<g id="Group 335">
<path id="Path 299" d="M18.7697 41.0013C18.5606 40.7922 18.4305 40.5039 18.4282 40.1849C18.4124 37.8911 17.5103 35.7344 15.888 34.1121C14.2657 32.4899 12.109 31.5877 9.81521 31.5719C9.17128 31.5675 8.65294 31.0419 8.65725 30.398C8.66166 29.7541 9.18726 29.2356 9.83119 29.24C12.7417 29.26 15.4783 30.4048 17.5369 32.4632C19.5954 34.5217 20.7401 37.2583 20.7601 40.1688C20.7645 40.8128 20.2461 41.3384 19.6021 41.3428C19.2773 41.345 18.9825 41.2141 18.7697 41.0013Z" fill="url(#paint11_linear_0_7854)"/>
<path id="Path 300" d="M8.99878 34.9664C8.78475 34.7524 8.65367 34.4558 8.6573 34.1292C8.66436 33.4852 9.19201 32.9689 9.83594 32.976C11.7466 32.9969 13.5433 33.7528 14.895 35.1046C16.2467 36.4563 17.0027 38.253 17.0236 40.1637C17.0307 40.8076 16.5144 41.3353 15.8705 41.3423C15.2265 41.3493 14.6989 40.8331 14.6918 40.1892C14.6776 38.8917 14.1643 37.6716 13.2462 36.7535C12.3281 35.8355 11.108 35.322 9.81055 35.3079C9.4931 35.3043 9.20672 35.1744 8.99878 34.9664Z" fill="url(#paint12_linear_0_7854)"/>
<path id="Path 301" d="M11.4449 41.0015C11.2413 40.798 11.1123 40.5193 11.104 40.2088C11.0946 39.8625 10.9544 39.5367 10.709 39.2914C10.4637 39.0461 10.1379 38.9058 9.79161 38.8964C9.14787 38.879 8.64012 38.343 8.65767 37.6993C8.67512 37.0556 9.21101 36.548 9.85474 36.5654C10.8 36.591 11.6889 36.9735 12.3579 37.6426C13.027 38.3116 13.4095 39.2005 13.435 40.1458C13.4525 40.7895 12.9447 41.3254 12.3011 41.3428C11.9678 41.3518 11.6634 41.2201 11.4449 41.0015Z" fill="url(#paint13_linear_0_7854)"/>
</g>
</g>
<defs>
<linearGradient id="paint0_linear_0_7854" x1="-0.00186427" y1="49.5518" x2="49.0626" y2="49.5518" gradientUnits="userSpaceOnUse">
<stop stop-color="#537983"/>
<stop offset="1" stop-color="#3E5959"/>
</linearGradient>
<linearGradient id="paint1_linear_0_7854" x1="5.85124" y1="27.5789" x2="27.5784" y2="49.3063" gradientUnits="userSpaceOnUse">
<stop stop-color="#60B7FF"/>
<stop offset="1" stop-color="#0268B4"/>
</linearGradient>
<linearGradient id="paint2_linear_0_7854" x1="24.2858" y1="35.8766" x2="32.4316" y2="44.5736" gradientUnits="userSpaceOnUse">
<stop stop-color="#C1E9AF"/>
<stop offset="1" stop-color="#4FC123"/>
</linearGradient>
<linearGradient id="paint3_linear_0_7854" x1="24.7264" y1="27.7036" x2="27.7029" y2="30.6802" gradientUnits="userSpaceOnUse">
<stop stop-color="#C1E9AF"/>
<stop offset="1" stop-color="#4FC123"/>
</linearGradient>
<linearGradient id="paint4_linear_0_7854" x1="27.6334" y1="11.2632" x2="35.1441" y2="18.0719" gradientUnits="userSpaceOnUse">
<stop stop-color="#C1E9AF"/>
<stop offset="1" stop-color="#4FC123"/>
</linearGradient>
<linearGradient id="paint5_linear_0_7854" x1="1.83377" y1="24.5525" x2="9.39135" y2="32.1101" gradientUnits="userSpaceOnUse">
<stop stop-color="#C1E9AF"/>
<stop offset="1" stop-color="#4FC123"/>
</linearGradient>
<linearGradient id="paint6_linear_0_7854" x1="8.93103" y1="20.2224" x2="18.0135" y2="24.6576" gradientUnits="userSpaceOnUse">
<stop stop-color="#C1E9AF"/>
<stop offset="1" stop-color="#4FC123"/>
</linearGradient>
<linearGradient id="paint7_linear_0_7854" x1="11.0819" y1="31.1032" x2="11.0819" y2="43.9311" gradientUnits="userSpaceOnUse">
<stop stop-color="#0268B4" stop-opacity="0.01"/>
<stop offset="1" stop-color="#0268B4"/>
</linearGradient>
<linearGradient id="paint8_linear_0_7854" x1="2.62784" y1="43.1827" x2="6.09799" y2="46.6529" gradientUnits="userSpaceOnUse">
<stop stop-color="#4BFF9F"/>
<stop offset="1" stop-color="#2BD67B"/>
</linearGradient>
<linearGradient id="paint9_linear_0_7854" x1="39.712" y1="6.09914" x2="43.182" y2="9.5692" gradientUnits="userSpaceOnUse">
<stop stop-color="#FFE177"/>
<stop offset="1" stop-color="#FE9738"/>
</linearGradient>
<linearGradient id="paint10_linear_0_7854" x1="24.849" y1="47.8787" x2="26.3268" y2="36.0233" gradientUnits="userSpaceOnUse">
<stop stop-color="#0268B4" stop-opacity="0.01"/>
<stop offset="1" stop-color="#0268B4"/>
</linearGradient>
<linearGradient id="paint11_linear_0_7854" x1="8.9289" y1="39.8522" x2="12.7764" y2="45.1688" gradientUnits="userSpaceOnUse">
<stop stop-color="#FFE177"/>
<stop offset="1" stop-color="#FE9738"/>
</linearGradient>
<linearGradient id="paint12_linear_0_7854" x1="7.67405" y1="40.7597" x2="11.5215" y2="46.0763" gradientUnits="userSpaceOnUse">
<stop stop-color="#FFE177"/>
<stop offset="1" stop-color="#FE9738"/>
</linearGradient>
<linearGradient id="paint13_linear_0_7854" x1="6.46905" y1="41.6328" x2="10.3167" y2="46.9493" gradientUnits="userSpaceOnUse">
<stop stop-color="#FFE177"/>
<stop offset="1" stop-color="#FE9738"/>
</linearGradient>
</defs>
</svg>
