<svg width="21" height="21" viewBox="0 0 21 21" fill="none" xmlns="http://www.w3.org/2000/svg">
<g id="youtube-fill" clip-path="url(#clip0_0_7433)">
<path id="Path 223" fill-rule="evenodd" clip-rule="evenodd" d="M19 10.5C19 10.5 19 7.4775 18.6115 6.02963C18.3982 5.23175 17.7675 4.60287 16.9642 4.38675C15.5116 4 10.5 4 10.5 4C10.5 4 5.49095 4 4.03575 4.38675C3.2359 4.59962 2.60435 5.22931 2.38845 6.02963C2 7.4775 2 10.5 2 10.5C2 10.5 2 13.5225 2.38845 14.9704C2.6018 15.7683 3.2325 16.3971 4.03575 16.6132C5.49095 17 10.5 17 10.5 17C10.5 17 15.5116 17 16.9642 16.6132C17.7641 16.4004 18.3956 15.7707 18.6115 14.9704C19 13.5225 19 10.5 19 10.5ZM13.9 10.5L8.8 13.3438V7.65625L13.9 10.5Z" fill="#687497"/>
</g>
<defs>
<clipPath id="clip0_0_7433">
<rect width="21" height="21" fill="white"/>
</clipPath>
</defs>
</svg>
